<svg width="77" height="77" viewBox="0 0 77 77" fill="none" xmlns="http://www.w3.org/2000/svg">
<g clip-path="url(#clip0_2711_480)">
<path fill-rule="evenodd" clip-rule="evenodd" d="M19.3508 54.2225C18.4957 54.613 13.9964 54.4063 12.6973 54.32V72.6348C14.0255 72.6348 15.391 72.3353 16.5602 72.17C24.1162 71.1022 20.7303 71.3425 27.8354 72.8127L42.0533 76.152C44.016 76.6474 43.6603 76.7787 45.4233 76.1123C51.5918 73.7806 58.4735 70.9531 64.5265 68.7923L74.008 65.1442C75.2401 64.6558 75.8718 64.2957 76.4987 63.2021C77.456 61.532 76.9969 58.5022 74.1092 57.6639C72.8798 57.307 71.5509 57.8629 70.459 58.1347L46.148 64.5225C45.0246 64.8193 44.6297 64.4023 42.9615 63.734L36.7056 61.1926C35.872 61.7254 36.7323 61.7285 34.7307 62.2558C33.8861 62.4783 33.1696 62.6273 32.3431 62.8381C31.0798 63.1603 28.3294 64.2307 28.4204 62.1227C28.4836 60.6575 31.0514 60.5105 32.445 60.1552C33.1809 59.9675 34.0857 59.6965 34.7997 59.5624C36.1244 59.3136 36.1121 59.848 36.7057 60.4695L40.9369 59.4501C42.4697 59.0663 43.6176 58.9386 44.3897 57.6503C45.3095 56.1156 45.1574 52.2721 39.2606 53.1668L19.3509 54.2225L19.3508 54.2225Z" fill="#EFC5A3"/>
<path fill-rule="evenodd" clip-rule="evenodd" d="M58.4436 47.8635C57.3167 47.5674 56.2913 47.9514 55.9427 46.9216C54.9981 44.131 59.7347 45.8025 60.7048 44.741C61.5181 43.8508 60.949 42.7311 59.8193 42.5409C57.7516 42.1928 56.3248 41.4512 55.9174 39.3676C55.7048 38.2804 55.9578 37.1971 56.5031 36.4221C57.2116 35.415 57.5321 35.5566 58.426 34.8236C58.479 33.5411 58.2876 32.1326 59.6829 32.0681C61.0917 32.0031 61.0553 33.3321 61.0553 34.5891C61.4987 34.6919 64.184 34.3759 63.5748 36.4109C63.1875 37.7044 61.2451 37.1717 59.8275 37.2889C58.0774 37.4337 58.1279 39.3042 59.1581 39.7651C60.5487 40.387 61.0679 39.6319 62.4728 41.0541C64.2759 42.8794 63.8769 45.9727 61.7991 47.1496C60.8776 47.6714 61.0762 47.4846 61.0526 48.6307C61.0052 50.9339 58.4434 51.5264 58.4434 47.8634L58.4436 47.8635ZM58.1439 29.5747C54.5706 30.156 52.1395 31.8129 50.5975 33.7918C48.8322 36.0572 47.5531 39.2103 48.1123 42.921C49.006 48.8521 54.4564 53.9226 61.478 52.8845C67.2085 52.0372 72.4418 46.5795 71.3836 39.5044C70.5163 33.7051 65.0427 28.4525 58.1439 29.5748V29.5747Z" fill="#FFD239"/>
<path fill-rule="evenodd" clip-rule="evenodd" d="M1.77051 51.592L1.77094 51.6963L12.7589 51.5562L12.6978 54.32C13.9969 54.4063 18.4963 54.613 19.3513 54.2224H12.7601V51.5921H5.70756C6.17287 50.8956 11.7309 45.4725 12.8011 44.3998C13.078 44.1223 14.3459 42.7861 14.5347 42.6851C15.2875 42.2826 17.0283 42.5503 18.0085 42.5503C19.4096 42.5503 24.1916 42.8181 25.098 42.4228C25.7653 42.1318 31.3857 36.3325 32.3197 35.3589L33.3587 34.2632C33.5185 34.0999 33.4825 34.1344 33.5978 34.0096L43.9609 23.683C45.0745 22.5165 45.6661 22.987 48.679 22.987C50.5485 22.987 54.2311 23.2037 55.8854 22.9767C56.7005 22.8649 57.3676 21.9225 57.9049 21.3841C59.4859 19.7993 73.2968 5.77198 74.1011 5.23211C74.1011 6.49971 73.9615 8.85124 74.1106 9.99022C74.3129 11.5355 76.4158 11.5391 76.6947 10.1333L76.7259 3.09446C76.7413 0.139278 76.6619 0.62906 71.969 0.62906C70.8846 0.62906 68.1115 0.486131 67.2224 0.63892C65.8284 0.878444 65.8981 3.05432 67.3861 3.24995C68.5224 3.39934 70.8684 3.25946 72.1331 3.25946C71.534 4.15622 69.3936 6.08768 68.4838 6.99944L65.7809 9.71536C65.3549 10.1263 65.1341 10.2019 64.7082 10.6129C62.1523 13.0787 59.7619 15.5773 57.2489 18.0963C56.7244 18.622 55.9806 19.4899 55.4572 19.9171C54.87 20.3964 53.227 20.1923 51.9595 20.1923C49.4967 20.1923 47.0317 20.1801 44.5696 20.183C42.9497 20.185 42.1498 21.5587 40.3556 23.357L24.6116 39.1403C23.3759 40.4201 22.9894 39.9199 19.649 39.9199C18.4461 39.9199 17.2435 39.92 16.0406 39.9199C14.554 39.9198 13.6016 39.6608 12.7942 40.4469L1.77068 51.592H1.77051Z" fill="#3BC285"/>
<path fill-rule="evenodd" clip-rule="evenodd" d="M12.6977 72.6348V54.32L12.7589 51.5562L1.77088 51.6963L1.77044 51.592H0.951172V75.2651H12.7602L12.6977 72.6348Z" fill="#54259F"/>
<path fill-rule="evenodd" clip-rule="evenodd" d="M58.144 29.5747C65.043 28.4524 70.5165 33.7049 71.3838 39.5044C72.4418 46.5795 67.2086 52.0372 61.4782 52.8845C54.4567 53.9226 49.0063 48.8521 48.1125 42.921C47.5533 39.2102 48.8323 36.0571 50.5977 33.7917C52.1396 31.813 54.5708 30.1559 58.144 29.5746V29.5747ZM45.3984 40.0844C45.3984 43.8571 45.6916 46.5464 48.067 49.7392C48.3319 50.0953 48.4941 50.3329 48.7994 50.6491C48.971 50.8267 49.0408 50.8824 49.2068 51.0627C54.7016 57.0276 64.0802 57.3127 69.7135 51.6333C70.9654 50.3712 71.7878 49.46 72.6293 47.8155C75.1096 42.9682 74.5201 35.9217 70.7794 31.9058C69.6773 30.7228 69.7262 30.6198 68.152 29.4431C63.4096 25.898 56.2602 25.8561 51.5346 29.302C48.1487 31.7711 45.3985 35.8797 45.3985 40.0845L45.3984 40.0844Z" fill="#FFB632"/>
<path fill-rule="evenodd" clip-rule="evenodd" d="M58.444 47.8635C58.444 51.5266 61.0057 50.934 61.0532 48.6308C61.0768 47.4848 60.8781 47.6716 61.7996 47.1497C63.8774 45.9728 64.2764 42.8795 62.4733 41.0542C61.0684 39.632 60.5492 40.3872 59.1586 39.7652C58.1283 39.3044 58.0778 37.4338 59.828 37.2891C61.2456 37.1718 63.1881 37.7045 63.5753 36.411C64.1845 34.376 61.4992 34.6921 61.0558 34.5892C61.0558 33.3322 61.0922 32.0032 59.6834 32.0682C58.2881 32.1326 58.4795 33.5411 58.4265 34.8237C57.5327 35.5567 57.212 35.4151 56.5036 36.4222C55.9584 37.1973 55.7053 38.2805 55.9179 39.3677C56.3253 41.4513 57.7521 42.1929 59.8199 42.541C60.9495 42.7313 61.5186 43.851 60.7053 44.7411C59.7352 45.8027 54.9986 44.1312 55.9432 46.9218C56.2918 47.9515 57.3171 47.5675 58.4441 47.8636L58.444 47.8635Z" fill="#FFD239"/>
<path fill-rule="evenodd" clip-rule="evenodd" d="M36.7064 61.1923V60.4693C36.1129 59.8478 36.1251 59.3134 34.8004 59.5622C34.0864 59.6963 33.1817 59.9673 32.4457 60.1549C31.052 60.5102 28.4843 60.6572 28.4211 62.1225C28.3303 64.2306 31.0806 63.1601 32.3438 62.8378C33.1703 62.627 33.8868 62.478 34.7314 62.2556C36.7331 61.7283 35.8728 61.7251 36.7063 61.1923H36.7064Z" fill="#DFB999"/>
</g>
<defs>
<clipPath id="clip0_2711_480">
<rect width="76" height="76" fill="white" transform="translate(0.951172 0.568359)"/>
</clipPath>
</defs>
</svg>
