<svg width="82" height="59" viewBox="0 0 82 59" fill="none" xmlns="http://www.w3.org/2000/svg">
<g clip-path="url(#clip0_2711_490)">
<path fill-rule="evenodd" clip-rule="evenodd" d="M12.9139 27.4181C15.2656 26.3889 15.3018 30.2098 13.63 30.8136C11.2074 31.6886 11.0971 28.2131 12.9139 27.4181ZM20.5967 17.6605C19.5328 19.0591 18.4533 22.0816 17.4852 23.7758C16.7419 25.0768 15.0379 24.7998 14.8233 23.4029C14.6927 22.554 15.7137 20.8803 16.0829 20.1418C17.3116 17.685 18.0145 15.1662 20.017 14.8018C21.4813 14.5353 23.1556 14.2767 23.3341 15.7978C23.5398 17.5514 22.025 17.5131 20.5966 17.6604L20.5967 17.6605ZM16.1592 10.4927L5.08496 33.0625C5.63817 33.4692 6.1207 33.5659 6.71216 33.8604C7.25917 34.1328 7.82707 34.3946 8.38331 34.7306C9.14901 35.1932 11.0257 36.1811 11.4559 36.7233C12.2174 36.3555 12.3278 35.755 13.3823 35.3331C14.2782 34.9747 15.4199 35.0373 16.2259 35.4437C17.8924 36.2839 18.3254 37.854 17.811 40.1319L17.9403 40.2354C18.8656 39.237 20.6178 36.9412 23.1039 37.7621C25.2042 38.4556 26.026 40.4859 25.0999 42.9375C26.0912 41.9865 27.9352 39.7165 30.4675 41.2023C32.5624 42.4315 32.7535 44.8466 31.2327 46.8158C33.4654 46.1715 33.3697 46.2367 35.2763 47.1455C36.8908 45.8368 37.4828 47.0821 39.6898 49.3152C41.0126 50.6535 44.1536 54.6515 46.3208 53.788C49.6531 52.4603 46.0171 49.5391 43.9336 47.4209C43.1798 46.6545 40.3822 44.6215 40.7556 43.1954C41.0358 42.1248 42.3315 41.976 43.0836 42.6771L48.7984 48.4217C49.7383 49.3947 51.5506 51.7769 53.7012 50.2027C55.7968 48.6688 52.9907 46.629 52.1763 45.8052L46.5645 40.1191C46.1056 39.6552 44.9596 38.7979 45.718 37.6348C46.8718 35.8653 48.9183 38.5971 50.088 39.7548C51.4763 41.1288 56.3875 46.7387 58.0049 46.9446C60.2765 47.2339 61.8924 44.9834 60.824 42.8249C60.1566 41.4766 58.2198 39.4396 57.6297 38.2901C57.4762 37.9598 56.1976 36.5507 55.8194 36.1969C55.1813 35.5999 54.5658 34.7841 53.9458 34.0878L43.9625 24.1806C43.5436 23.7978 43.3758 23.5377 42.9642 23.1153C42.6138 22.7557 42.2719 22.5326 41.9416 22.2093C41.6511 22.0177 40.3143 20.7097 40.0721 20.4455C39.4449 20.5067 38.7994 21.0269 38.0976 21.2834C37.383 21.5446 36.4594 21.5575 35.8282 21.8391C35.666 21.9565 34.1112 25.0558 33.3725 26.1076C30.5379 30.144 26.5922 30.0722 25.2265 27.7724C24.3679 26.3269 25.3501 23.9655 25.7752 22.4172C26.2399 20.7245 26.825 18.9643 27.446 17.3879C28.2199 15.4232 28.3957 14.6333 30.3038 13.719C32.5716 12.6324 37.6108 10.6097 38.544 8.89191C36.5073 7.68645 36.7371 7.24785 33.4397 7.28458C32.2038 7.29834 31.6091 7.59025 30.7381 7.91275C29.8561 8.23917 29.1196 8.50725 28.166 8.83183C23.7237 10.3438 20.9147 10.4926 16.1592 10.4926V10.4927Z" fill="#EEC6A3"/>
<path fill-rule="evenodd" clip-rule="evenodd" d="M67.3437 30.5015C67.2362 29.3909 68.2807 28.5299 69.3548 29.0572C69.7945 29.2731 70.8132 30.7932 70.8902 31.4995C71.0147 32.6424 69.9866 33.4311 68.8862 32.9079C68.471 32.7105 67.4119 31.207 67.3437 30.5015ZM55.3374 17.0557C54.9915 14.9656 57.4796 15.4476 58.923 15.4827C60.7363 15.5268 61.9148 16.072 62.6746 17.0971C63.1985 17.804 66.4751 23.297 66.5197 23.9537C66.6191 25.4191 64.8408 26.2012 63.784 24.6134C63.0692 23.5394 62.4611 22.3837 61.7854 21.1998C61.2353 20.2362 60.5515 18.4471 59.3971 18.3226C57.8469 18.1551 55.6048 18.6713 55.3374 17.0558V17.0557ZM48.9503 15.9351C48.3357 13.4177 52.3578 13.8551 52.6729 15.5262C53.1198 17.8962 49.3141 17.4252 48.9503 15.9351ZM38.5443 8.89213C37.6112 10.6099 32.572 12.6326 30.3041 13.7193C28.3961 14.6336 28.2203 15.4234 27.4463 17.3881C26.8253 18.9645 26.2403 20.7248 25.7755 22.4175C25.3504 23.9657 24.3682 26.3271 25.2268 27.7726C26.5927 30.0724 30.5384 30.1442 33.3729 26.1078C34.1114 25.056 35.6663 21.9568 35.8285 21.8393C36.4596 21.5576 37.3834 21.5448 38.0979 21.2836C38.7998 21.0271 39.4453 20.5068 40.0724 20.4458C40.3449 19.887 40.6556 19.7981 41.0212 19.4373C42.0442 18.4283 42.8601 16.3909 44.3017 17.5927C45.9352 18.9544 42.6236 21.936 41.9421 22.2095C42.2724 22.5328 42.6143 22.7559 42.9646 23.1155C43.3762 23.538 43.544 23.7981 43.963 24.1808L53.9463 34.088C54.5663 34.7843 55.1818 35.6002 55.8198 36.1971C56.1981 36.5509 57.4767 37.96 57.6302 38.2903C58.2124 38.6444 59.4613 40.2882 59.913 40.8597C60.3391 41.399 60.5585 41.7152 60.9347 42.2253C61.3039 42.7262 61.4645 43.2178 61.9233 43.6149C62.4287 43.5147 63.3855 42.8763 63.8891 42.5749C67.6317 40.3349 74.5012 36.5819 77.6586 34.5033C77.2504 32.7239 73.7895 20.6856 73.116 19.9779L63.6635 10.4713C61.8119 10.7334 60.5053 11.6135 56.6529 11.0233C49.1437 9.87276 46.9452 7.84761 44.7507 7.37903C40.9804 6.57396 39.0097 8.75109 38.5444 8.89225L38.5443 8.89213Z" fill="#A38671"/>
<path fill-rule="evenodd" clip-rule="evenodd" d="M63.6631 10.4713L73.1157 19.9779C73.7891 20.6855 77.25 32.7238 77.6583 34.5033C78.5443 35.3611 80.0921 35.9439 81.8565 35.9439V0.568604C80.3063 1.39862 78.8707 2.14239 77.3192 3.02093L63.6631 10.4714V10.4713Z" fill="#54259F"/>
<path fill-rule="evenodd" clip-rule="evenodd" d="M11.456 36.7236C10.951 37.5504 10.1518 37.8734 9.70885 38.8183C9.22886 39.8421 9.38064 40.9063 10.0028 41.7363C11.3303 43.507 12.9615 44.6454 14.9365 43.3072C14.5586 44.9482 14.3665 45.6417 15.8406 47.1945C16.7491 48.1516 18.0605 49.0569 19.6826 48.2694C19.453 49.2667 18.8386 49.7277 19.4226 51.0931C19.9219 52.2604 21.8347 54.3259 23.7276 53.8071C24.7608 53.5239 25.1174 52.7692 25.8525 52.2712C25.5737 53.4817 25.5698 54.5506 26.2828 55.3573C26.7281 55.861 27.682 56.915 28.2791 57.1793C30.7264 58.2621 32.089 55.6869 33.273 54.8324C33.5917 54.2204 34.1271 53.7408 34.6635 53.4422C35.1647 52.4361 35.9508 52.4754 36.4796 50.5097C36.5822 48.2472 36.0261 48.3774 35.2762 47.1459C33.3697 46.2371 33.4653 46.1719 31.2325 46.8162C32.7535 44.847 32.5622 42.4319 30.4673 41.2027C27.935 39.7169 26.0911 41.9869 25.0998 42.9379C26.0259 40.4863 25.2042 38.4561 23.1037 37.7625C20.6177 36.9416 18.8654 39.2373 17.9402 40.2358L17.2669 40.8931C17.5415 40.3473 17.3395 40.4736 17.8108 40.1323C18.3252 37.8544 17.8922 36.2843 16.2258 35.4441C15.4198 35.0378 14.278 34.9751 13.3822 35.3335C12.3277 35.7553 12.2172 36.3559 11.4558 36.7238L11.456 36.7236Z" fill="#A38671"/>
<path fill-rule="evenodd" clip-rule="evenodd" d="M5.08502 33.0625L16.1592 10.4927L2.86103 3.0221C2.36343 2.75182 1.28216 2.10941 0.856445 2.00903V34.5031C2.92393 34.5031 3.94534 33.999 5.08514 33.0625H5.08502Z" fill="#FFA800"/>
<path fill-rule="evenodd" clip-rule="evenodd" d="M35.2758 47.1455C36.0259 48.377 36.582 48.2468 36.4793 50.5093C36.5174 50.4726 36.6329 50.4057 36.6559 50.4024L36.8174 50.3797C36.8677 50.3915 37.0368 50.5409 37.1121 50.6172L39.1549 52.7372C39.6434 53.2333 39.9953 53.6216 40.4949 54.1042C42.3756 55.9211 40.2355 56.7162 39.4632 56.8245C36.9849 57.1717 34.6721 53.4797 34.6629 53.4419C34.1266 53.7403 33.5911 54.2199 33.2725 54.832C34.9479 55.9016 36.5703 58.0857 38.2512 58.4534C39.7522 58.7818 40.9109 58.3593 41.742 57.7839C42.9453 56.9507 43.096 56.5646 43.096 54.6719C46.5229 56.5067 50.0826 54.5375 49.2659 50.9903C49.9801 51.3726 50.4256 51.7801 51.3573 51.9159C53.7632 52.2664 56.5692 51.0168 55.7522 47.4687C56.6359 48.0675 56.5483 48.3542 57.966 48.6014C60.8865 49.1106 63.7447 46.5063 61.9222 43.6148C61.4634 43.2177 61.3029 42.726 60.9336 42.2251C60.5574 41.715 60.338 41.3988 59.9119 40.8596C59.4603 40.2881 58.2113 38.6442 57.6291 38.2902C58.2192 39.4396 60.156 41.4767 60.8234 42.8249C61.8918 44.9835 60.2759 47.234 58.0043 46.9446C56.3869 46.7386 51.4756 41.1288 50.0873 39.7549C48.9175 38.5972 46.8711 35.8652 45.7174 37.6349C44.959 38.7979 46.105 39.6554 46.5639 40.1191L52.1757 45.8053C52.99 46.629 55.7962 48.6688 53.7005 50.2028C51.55 51.7768 49.7377 49.3948 48.7978 48.4217L43.083 42.6771C42.3309 41.9762 41.0352 42.1249 40.7549 43.1954C40.3816 44.6216 43.1792 46.6546 43.933 47.421C46.0165 49.539 49.6525 52.4603 46.3202 53.7881C44.153 54.6515 41.012 50.6535 39.6892 49.3153C37.4822 47.0822 36.8902 45.8369 35.2757 47.1455H35.2758Z" fill="#E3B692"/>
<path fill-rule="evenodd" clip-rule="evenodd" d="M61.7853 21.1998C62.461 22.3836 63.0691 23.5393 63.7839 24.6133C64.8405 26.201 66.619 25.419 66.5196 23.9536C66.475 23.2971 63.1984 17.804 62.6744 17.097C61.9147 16.072 60.7362 15.5269 58.9228 15.4827C57.4795 15.4475 54.9914 14.9656 55.3373 17.0556C55.6047 18.6712 57.8468 18.1549 59.397 18.3224C60.5514 18.4469 61.2352 20.236 61.7853 21.1997V21.1998Z" fill="#937660"/>
<path fill-rule="evenodd" clip-rule="evenodd" d="M20.5963 17.6605C22.0247 17.5132 23.5395 17.5515 23.3338 15.7979C23.1553 14.2768 21.481 14.5353 20.0167 14.8019C18.0142 15.1663 17.3113 17.685 16.0826 20.1419C15.7134 20.8803 14.6924 22.5541 14.823 23.403C15.0375 24.7999 16.7416 25.0769 17.4849 23.7759C18.4529 22.0817 19.5324 19.0592 20.5964 17.6606L20.5963 17.6605Z" fill="#F3CFB3"/>
<path fill-rule="evenodd" clip-rule="evenodd" d="M36.4792 50.5093C35.9503 52.4749 35.1643 52.4358 34.6631 53.4418C34.6723 53.4797 36.9851 57.1716 39.4634 56.8244C40.2356 56.7162 42.3757 55.9211 40.4951 54.1041C39.9955 53.6214 39.6436 53.2332 39.1551 52.7371L37.1123 50.6171C37.037 50.5408 36.8679 50.3914 36.8176 50.3796L36.6561 50.4024C36.6329 50.4057 36.5175 50.4724 36.4795 50.5093H36.4792Z" fill="#EEC6A3"/>
<path fill-rule="evenodd" clip-rule="evenodd" d="M40.0724 20.4456C40.3146 20.7097 41.6515 22.0178 41.9419 22.2093C42.6236 21.9358 45.9352 18.9542 44.3016 17.5925C42.8599 16.3907 42.0441 18.4282 41.0211 19.4372C40.6555 19.7979 40.3447 19.8868 40.0723 20.4456H40.0724Z" fill="#937660"/>
<path fill-rule="evenodd" clip-rule="evenodd" d="M67.3436 30.5015C67.4118 31.207 68.4709 32.7105 68.8861 32.9079C69.9865 33.431 71.0146 32.6423 70.8901 31.4995C70.8133 30.7932 69.7944 29.2731 69.3547 29.0572C68.2806 28.5301 67.2361 29.3909 67.3436 30.5015Z" fill="#937660"/>
<path fill-rule="evenodd" clip-rule="evenodd" d="M48.9505 15.9352C49.3143 17.4253 53.1199 17.8964 52.6731 15.5263C52.3581 13.8551 48.3359 13.4176 48.9505 15.9352Z" fill="#937660"/>
<path fill-rule="evenodd" clip-rule="evenodd" d="M12.9138 27.4181C11.0972 28.2131 11.2073 31.6885 13.6299 30.8136C15.3017 30.2098 15.2655 26.3891 12.9138 27.4181Z" fill="#F3CFB3"/>
<path fill-rule="evenodd" clip-rule="evenodd" d="M17.9399 40.2354L17.8106 40.1318C17.3392 40.4731 17.5413 40.3468 17.2666 40.8927L17.9399 40.2354Z" fill="#D1AD90"/>
</g>
<defs>
<clipPath id="clip0_2711_490">
<rect width="81" height="58" fill="white" transform="translate(0.856445 0.568359)"/>
</clipPath>
</defs>
</svg>
