<svg width="87" height="67" viewBox="0 0 87 67" fill="none" xmlns="http://www.w3.org/2000/svg">
<path fill-rule="evenodd" clip-rule="evenodd" d="M44.9121 18.1239C46.2624 17.7617 50.9274 16.6398 52.0891 16.6988C52.5966 16.2489 55.1422 15.8705 55.9884 15.7705C55.9884 18.3773 56.1639 36.1323 55.8963 37.1479L44.8124 37.125C44.472 35.4458 44.7454 29.6951 44.7454 27.5895C44.7454 26.0818 44.4177 18.8597 44.912 18.1239H44.9121ZM63.5866 14.2418C63.9717 13.8895 66.8639 13.4099 67.6381 13.2831V37.1473L63.7527 37.1338L58.4772 37.1491L58.5167 15.1844C59.8739 14.9774 62.4225 14.1853 63.5866 14.2418ZM38.245 19.596L42.2838 18.6847V37.1475L38.3982 37.1519L31.0664 37.13L31.0678 21.0394L38.245 19.596ZM24.4137 22.5215L28.5772 21.5851V37.1489L24.6913 37.1373L19.417 37.1414L19.4226 23.5151L24.4138 22.5215H24.4137ZM17.7524 39.5531C22.6062 39.8006 33.2132 39.5869 38.7053 39.5869C40.968 39.5869 68.8291 39.8685 69.6342 39.3654C70.4387 38.8628 70.1286 35.945 70.1286 34.789V14.3358C70.1287 12.2524 70.7196 10.5466 68.4737 10.5498C63.0749 11.8707 57.2667 12.976 51.7931 14.1197C46.1211 15.3047 40.5281 16.5134 34.8308 17.7357C32.0441 18.3335 29.2914 18.9089 26.493 19.5072C23.7708 20.0893 20.6983 20.5981 18.0079 21.3048C16.5235 21.6947 16.9256 22.842 16.9256 25.2986L16.9186 37.9081C16.9365 39.1105 17.0276 39.0793 17.7525 39.5529L17.7524 39.5531Z" fill="#54259F"/>
<path fill-rule="evenodd" clip-rule="evenodd" d="M12.9288 19.0588L12.9713 35.6073C13.0773 36.2122 13.1962 37.6284 12.9288 38.1557L12.9754 43.2977C13.2814 43.4855 51.1188 43.7439 54.1163 43.3929C54.1577 43.375 54.2222 43.3132 54.2459 43.3532C54.2701 43.3937 54.3448 43.3229 54.3792 43.3171C54.5842 43.2825 54.5938 43.2724 54.8276 43.2575L68.8958 43.2624V39.8616L21.0775 39.8607C20.5232 39.8607 19.9697 39.8575 19.4156 39.8674C18.6803 39.8807 18.3002 39.9494 17.7524 39.5531C17.0275 39.0794 16.9364 39.1106 16.9186 37.9082L16.9256 25.2987C16.9256 22.842 16.5235 21.6947 18.0078 21.3049C20.6982 20.5982 23.7708 20.0893 26.4929 19.5073C29.2913 18.909 32.0441 18.3336 34.8307 17.7358C40.5281 16.5137 46.121 15.3049 51.793 14.1198C57.2667 12.9761 63.075 11.8708 68.4737 10.5499L68.8479 10.0426C68.9102 9.87404 68.915 9.46596 68.913 9.27159C68.9076 8.72345 68.8957 8.17791 68.8957 7.62718C68.7736 7.58658 68.946 7.50461 68.3636 7.53064C67.2581 7.45386 62.7395 8.59829 61.2795 8.90033C45.1853 12.2297 28.9623 15.8452 12.9287 19.0589L12.9288 19.0588Z" fill="#FDEDDE"/>
<path fill-rule="evenodd" clip-rule="evenodd" d="M40.5043 60.9599L14.0935 60.8933L14.2047 60.9027L11.701 60.9446L6.27663 60.9714C4.06583 60.9609 2.79558 60.6264 1.65265 61.8195C1.27434 62.2144 1.04354 62.7014 0.955078 63.2086V64.1632C1.15877 65.3342 2.11645 66.3725 3.77313 66.3781L78.9125 66.3692C79.9328 65.723 80.9864 65.2994 80.9489 63.5917C80.9127 61.9342 79.9022 61.5848 78.8205 60.972L75.5736 60.9655L71.9645 60.9715L54.1524 60.964L46.7455 60.9468L44.4357 60.9695L44.455 51.468C44.4545 51.3411 44.4418 50.9421 44.4138 50.8338C44.2605 50.2405 44.6389 50.576 44.136 50.3621C44.5214 52.1688 44.2329 58.6859 44.226 60.9685L40.5047 60.9599H40.5043Z" fill="#54259F"/>
<path fill-rule="evenodd" clip-rule="evenodd" d="M6.27667 60.9712L11.7011 60.9443C11.7011 58.3891 11.7011 55.8339 11.7011 53.2786C11.7011 48.598 11.1457 47.9172 13.9206 47.9338L44.7001 47.9321C46.2218 47.9262 46.7227 48.1082 46.7533 49.6695L46.7453 60.9464L54.1522 60.9636L54.1533 57.6364L54.1338 55.1929L54.1479 53.4136L54.1403 50.9701L54.1432 49.188L54.1453 46.7403L54.116 43.3926C51.1185 43.7436 13.2811 43.4852 12.975 43.2974H9.56149C9.12062 43.5399 7.55822 43.5157 7.11725 43.2974C5.86215 43.3243 6.27645 43.7196 6.27645 47.0608V60.9711L6.27667 60.9712Z" fill="#EFD4BE"/>
<path fill-rule="evenodd" clip-rule="evenodd" d="M12.9286 19.0587C28.9622 15.8451 45.1851 12.2295 61.2793 8.9002C62.7393 8.59816 67.258 7.45373 68.3635 7.53051C68.8841 7.07546 73.0675 6.38456 74.1269 6.20779C75.9598 5.83481 78.0084 5.80932 78.74 4.30973C79.5656 2.61716 78.5261 0.729567 76.6138 0.587026C75.7345 0.521479 74.4409 0.892626 73.7613 1.04953L54.5725 5.07697C50.8171 5.80781 47.098 6.66338 43.4872 7.4236C39.7885 8.2024 36.1066 9.01369 32.5095 9.71236C25.3038 11.112 17.8403 12.9033 10.5819 14.3174C9.49693 14.5289 9.06769 14.8003 8.47647 15.5185C7.4772 16.7326 8.08488 18.9856 10.0588 19.4616C10.9327 19.6723 12.0428 19.3183 12.9287 19.0589L12.9286 19.0587Z" fill="#F4A223"/>
<path fill-rule="evenodd" clip-rule="evenodd" d="M14.0935 60.8933L40.5044 60.9599C40.1262 59.8128 40.3565 52.149 40.3565 50.3345H40.5344H14.0928L14.0935 60.8933Z" fill="#FFA800"/>
<path fill-rule="evenodd" clip-rule="evenodd" d="M68.3632 7.53059C68.9456 7.50456 68.7733 7.58653 68.8953 7.62713C68.8953 8.17796 68.9072 8.7234 68.9126 9.27154C68.9145 9.46591 68.9098 9.87399 68.8476 10.0426L68.4733 10.5499C70.7191 10.5466 70.1282 12.2525 70.1281 14.3359V34.7891C70.1281 35.9452 70.4383 38.8629 69.6338 39.3654C68.8287 39.8684 40.9677 39.5869 38.7049 39.5869C33.2126 39.5869 22.6058 39.8006 17.752 39.5531C18.2997 39.9494 18.6799 39.8806 19.4151 39.8675C19.9692 39.8574 20.5228 39.8608 21.077 39.8608L68.8953 39.8616V43.2624L54.8271 43.2576C54.5934 43.2726 54.5837 43.2825 54.3787 43.3172C54.3443 43.323 54.2696 43.3937 54.2454 43.3532C54.2217 43.3134 54.1572 43.3751 54.1158 43.393L71.9648 43.4283V46.7405L71.9656 49.1882L71.9676 50.9703L71.9627 53.4138L71.9716 55.1931L71.9593 57.6366L71.9641 60.9713L75.5733 60.9653V43.372L77.5072 43.3816V43.2976H74.1266L74.0759 38.2252L74.1138 35.6072L74.1266 6.20776C73.0673 6.38464 68.884 7.07543 68.3632 7.53048V7.53059Z" fill="#EFD4BE"/>
<path fill-rule="evenodd" clip-rule="evenodd" d="M44.9117 18.1239L44.8926 37.0011L52.1013 36.9906L52.0887 16.6988C50.927 16.6397 46.2619 17.7617 44.9117 18.1239Z" fill="#CCACFF"/>
<path fill-rule="evenodd" clip-rule="evenodd" d="M11.7008 60.9446L14.2045 60.9027L14.2183 50.4002L44.1354 50.3621C44.6384 50.576 44.26 50.2404 44.4133 50.8339C44.4413 50.942 44.454 51.341 44.4544 51.4681L44.4351 60.9695L46.7449 60.9468L46.7529 49.6699C46.7223 48.1086 46.2214 47.9266 44.6997 47.9325L13.9202 47.9342C11.1452 47.9176 11.7007 48.5984 11.7007 53.279C11.7007 55.8343 11.7007 58.3895 11.7007 60.9447L11.7008 60.9446Z" fill="#6536B1"/>
<path fill-rule="evenodd" clip-rule="evenodd" d="M38.3983 37.1518C38.3983 34.8848 38.7638 20.4308 38.245 19.5959L31.0678 21.0394L31.0664 37.1299L38.3983 37.1518Z" fill="#CCACFF"/>
<path fill-rule="evenodd" clip-rule="evenodd" d="M63.7531 37.1337C63.7531 33.2432 63.7531 29.3528 63.7531 25.4622C63.7531 24.0676 64.0842 14.6451 63.5869 14.2417C62.4228 14.1851 59.8742 14.9773 58.517 15.1843L58.4775 37.1489L63.7531 37.1337Z" fill="#CCACFF"/>
<path fill-rule="evenodd" clip-rule="evenodd" d="M77.5071 43.3816L75.5732 43.372V60.9653L78.8201 60.9717L80.7786 60.9782V43.2976H79.8826L77.5071 43.3816Z" fill="#E4BFA4"/>
<path fill-rule="evenodd" clip-rule="evenodd" d="M63.5869 14.2417C64.0842 14.6452 63.7531 24.0676 63.7531 25.4622C63.7531 29.3526 63.7531 33.2432 63.7531 37.1337L67.6384 37.1472V13.283C66.8643 13.4097 63.972 13.8893 63.5869 14.2417Z" fill="#F3E8FF"/>
<path fill-rule="evenodd" clip-rule="evenodd" d="M52.0888 16.6986L52.1014 36.9904L44.8927 37.0009L44.9118 18.1237C44.4175 18.8595 44.7452 26.0816 44.7452 27.5893C44.7452 29.6948 44.4717 35.4456 44.8122 37.1248L55.8961 37.1477C56.1636 36.1321 55.9882 18.3771 55.9882 15.7703C55.142 15.8703 52.5964 16.2485 52.0889 16.6986H52.0888Z" fill="#F3E8FF"/>
<path fill-rule="evenodd" clip-rule="evenodd" d="M24.6914 37.1374V25.7897C24.6914 24.8677 24.9088 22.5978 24.4138 22.5215L19.4226 23.5151L19.417 37.1414L24.6914 37.1373V37.1374Z" fill="#CCACFF"/>
<path fill-rule="evenodd" clip-rule="evenodd" d="M38.2451 19.5961C38.7639 20.4311 38.3983 34.8849 38.3983 37.152L42.2839 37.1476V18.6848L38.2451 19.5961Z" fill="#F3E8FF"/>
<path fill-rule="evenodd" clip-rule="evenodd" d="M54.1455 46.7406H71.9651V43.4284L54.1162 43.3931L54.1455 46.7406Z" fill="#6536B1"/>
<path fill-rule="evenodd" clip-rule="evenodd" d="M54.1523 60.9637L71.9645 60.9713L71.9596 57.6365H54.1534L54.1523 60.9637Z" fill="#9662EA"/>
<path fill-rule="evenodd" clip-rule="evenodd" d="M24.4132 22.5213C24.9082 22.5975 24.6908 24.8674 24.6908 25.7895V37.1372L28.5767 37.1487V21.585L24.4131 22.5214L24.4132 22.5213Z" fill="#F3E8FF"/>
<path fill-rule="evenodd" clip-rule="evenodd" d="M54.1436 49.1882H71.966L71.9652 46.7405H54.1456L54.1436 49.1882Z" fill="#54259F"/>
<path fill-rule="evenodd" clip-rule="evenodd" d="M54.1532 57.6364H71.9594L71.9717 55.1929H54.1338L54.1532 57.6364Z" fill="#54259F"/>
<path fill-rule="evenodd" clip-rule="evenodd" d="M54.1484 53.4137H71.9632L71.9682 50.9702H54.1406L54.1484 53.4137Z" fill="#54259F"/>
<path fill-rule="evenodd" clip-rule="evenodd" d="M14.2048 60.9027L14.0935 60.8933L14.0928 50.3345H40.5344H40.3565C40.3565 52.1488 40.1263 59.8127 40.5044 60.9599L44.2257 60.9686C44.2327 58.686 44.5212 52.1687 44.1357 50.3621L14.2187 50.4002L14.2048 60.9027Z" fill="#FFC400"/>
<path fill-rule="evenodd" clip-rule="evenodd" d="M7.11788 43.2976C7.55886 43.5159 9.12125 43.5401 9.56212 43.2976L9.60547 38.2252L12.9291 38.1556C13.1964 37.6283 13.0776 36.2121 12.9716 35.6072C9.63456 35.6072 4.95405 34.8068 5.09695 37.0758C5.16334 38.1294 6.00238 38.2252 7.10866 38.2252L7.11788 43.2976Z" fill="#54259F"/>
<path fill-rule="evenodd" clip-rule="evenodd" d="M74.0763 38.2253H77.453L77.5075 43.2977V43.3817L79.8829 43.2977L79.9511 38.2253C81.0337 38.2253 81.7994 38.1264 81.944 37.2228C82.3389 34.7585 77.4244 35.6073 74.114 35.6073L74.0762 38.2253H74.0763Z" fill="#54259F"/>
<path fill-rule="evenodd" clip-rule="evenodd" d="M54.1406 50.9703H71.9682L71.9661 49.1882H54.1437L54.1406 50.9703Z" fill="#9662EA"/>
<path fill-rule="evenodd" clip-rule="evenodd" d="M54.1338 55.1931H71.9717L71.9628 53.4138H54.1479L54.1338 55.1931Z" fill="#9662EA"/>
<path fill-rule="evenodd" clip-rule="evenodd" d="M78.9123 66.3692C81.8784 66.3692 85.3502 67.0279 86.0337 64.5027C86.0606 64.4036 86.0826 64.307 86.1004 64.2122V63.0881C85.935 62.2998 85.4228 61.735 84.8737 61.3582C83.9995 60.7583 82.169 60.949 80.7788 60.9784L78.8203 60.9719C79.902 61.5846 80.9125 61.9342 80.9487 63.5917C80.9861 65.2993 79.9325 65.723 78.9123 66.3692Z" fill="#54259F"/>
</svg>
