<svg width="66" height="60" viewBox="0 0 66 60" fill="none" xmlns="http://www.w3.org/2000/svg">
<g clip-path="url(#clip0_2711_423)">
<path fill-rule="evenodd" clip-rule="evenodd" d="M49.8443 17.0593C53.6261 15.7992 55.2837 21.3368 51.7445 22.5583C48.0075 23.8479 46.1755 18.2815 49.8443 17.0593ZM14.4066 17.051C16.2249 16.4904 17.7158 17.5818 18.125 18.9183C18.6891 20.7602 17.4585 22.261 16.1372 22.6207C12.385 23.6424 10.8292 18.1537 14.4066 17.0508V17.051ZM29.5063 36.0288L29.6022 35.8918C29.6919 35.7464 29.6565 35.8047 29.7366 35.6629L30.508 34.4101C30.9462 33.8088 31.3711 33.3989 31.7882 32.9067C29.0399 32.9402 26.1535 30.7903 24.5445 28.9635C18.5288 22.1326 21.1702 10.1171 29.3759 7.22944C32.7417 6.04496 35.6074 6.51989 38.4373 8.04195C45.3162 11.7415 47.0569 22.6941 41.6063 28.8973C41.3778 29.1574 41.2056 29.3635 40.9477 29.638C40.5884 30.0205 40.7265 29.9913 40.2161 30.0542C40.4927 30.3083 40.3863 30.2089 40.8241 30.2391C41.4561 30.0082 43.9812 30.0882 44.4084 30.5797L45.2025 29.9799C45.3166 29.5859 45.8853 29.3072 46.2989 29.0183C46.7233 28.7216 47.0831 28.5019 47.5697 28.261C48.3325 27.8831 49.823 27.2221 50.7846 27.3523L51.4456 27.186C52.2436 27.1067 53.2873 27.1862 54.0426 27.3172C55.0315 26.7654 58.0041 27.5214 58.9939 27.9124C59.68 28.1834 60.3894 28.5764 60.9028 28.9173C61.7446 29.4761 62.1573 30.0122 62.5921 30.0792L62.5919 9.53159C60.1967 9.07309 58.4727 8.63211 57.2672 6.10323C56.7887 5.09969 56.9193 4.69858 56.6583 3.683C55.5703 3.44926 19.4616 3.61268 15.3985 3.61268C14.0477 3.61268 10.5188 3.44948 9.43179 3.683C9.04785 5.17702 9.27347 6.08921 7.66799 7.73657C6.4227 9.01438 5.65393 9.11887 3.50266 9.53159L3.49805 30.0792C6.0326 30.5835 7.60685 30.9944 8.86292 33.5877C9.31217 34.5155 9.17891 35.1321 9.47445 35.9959L29.5057 36.0292L29.5063 36.0288Z" fill="#3AB44A"/>
<path fill-rule="evenodd" clip-rule="evenodd" d="M28.6021 38.9615H28.7235C28.7721 37.7405 29.2513 37.0129 29.5061 36.0289L9.47489 35.9956C9.17912 35.132 9.3126 34.5152 8.86335 33.5874C7.60729 30.9941 6.03303 30.583 3.49848 30.0789L3.5031 9.53129C5.65415 9.11857 6.42313 9.01408 7.66842 7.73627C9.2739 6.08891 9.0485 5.17694 9.43223 3.6827C10.5192 3.44918 14.0481 3.61238 15.399 3.61238C19.462 3.61238 55.5707 3.44896 56.6588 3.6827C56.9198 4.6985 56.7894 5.09939 57.2677 6.10293C58.4732 8.63181 60.1972 9.07279 62.5923 9.53129L62.5925 30.0789C62.1578 30.0119 61.7448 29.4758 60.9033 28.917C60.3898 28.5761 59.6802 28.1831 58.9943 27.9121C58.0043 27.5211 55.0317 26.7651 54.0431 27.3169C55.3326 27.4534 56.5959 28.0716 57.5467 28.591C58.0811 28.883 58.4815 29.1695 58.9547 29.5906C59.3446 29.9376 59.8759 30.5475 60.2293 30.7687C60.6937 30.4088 61.928 30.0995 62.5345 30.3396C63.2357 30.6173 64.5098 32.8761 64.8784 33.8109C65.1253 34.437 65.3582 35.7428 65.5458 36.1284V5.06741V3.6183C65.4972 2.68421 65.2566 1.81342 64.2565 1.16653C63.0486 0.385123 61.4053 0.640991 59.4519 0.640991C42.0593 0.640991 24.6668 0.640991 7.27436 0.640991C5.73815 0.640991 3.42679 0.365188 2.3196 0.890286C0.797463 1.6121 0.557993 2.68837 0.545898 4.11952V35.7557C0.642654 39.8636 4.55223 38.9617 7.65522 38.9617C14.6377 38.9617 21.6201 38.9639 28.6026 38.9615H28.6021Z" fill="#0E9347"/>
<path fill-rule="evenodd" clip-rule="evenodd" d="M31.522 27.2073C30.1534 27.0329 28.4091 27.3216 28.6455 25.4832C29.0103 22.6452 35.2387 25.6758 35.9156 23.2293C36.8026 20.0226 31.456 22.0823 29.1418 20.5887C26.2798 18.7417 26.5694 14.3293 29.5963 12.8899C30.0458 12.6761 31.1807 12.5678 31.4716 12.3613C31.9172 11.8421 31.6948 11.0024 33.0455 11.0024C34.5153 11.0024 34.1861 12.0414 34.6958 12.4489C35.4993 12.4489 36.4484 12.3746 36.9678 12.7919C37.5123 13.2296 37.6062 14.1725 37.2114 14.7778C36.2034 16.3237 31.2992 14.5177 30.3332 16.0216C29.8651 16.7502 30.1659 17.7084 30.6738 18.0547C31.5633 18.6613 34.4506 18.1518 35.7863 18.524C39.5125 19.5621 40.1561 24.8466 36.5924 26.6833C36.0809 26.9468 34.7345 26.9843 34.5069 27.3823C34.2954 27.7523 34.4337 27.9234 34.0165 28.2919C33.7397 28.5363 33.3806 28.6351 32.9214 28.6084C31.8573 28.5462 31.8613 27.9753 31.522 27.2075V27.2073ZM31.7879 32.9064C32.6114 32.3248 33.1343 31.7478 34.2556 31.1925C34.9722 30.8376 36.574 30.1703 37.5461 30.2932C38.0138 29.8507 39.5026 30.166 40.2159 30.054C40.7261 29.9911 40.588 30.0203 40.9475 29.6378C41.2052 29.3633 41.3774 29.1572 41.6061 28.8971C47.0567 22.6939 45.3158 11.7415 38.4372 8.04174C35.6073 6.51968 32.7416 6.04497 29.3758 7.22923C21.17 10.1167 18.5286 22.1322 24.5444 28.9633C26.1534 30.7903 29.0398 32.9402 31.7881 32.9064H31.7879Z" fill="#0E9347"/>
<path fill-rule="evenodd" clip-rule="evenodd" d="M41.3527 54.6424C38.3161 52.1544 38.2284 46.6487 41.188 43.9123C44.5384 40.8146 49.2636 41.424 51.9364 44.4705L52.1561 44.701C55.5445 48.6452 53.2622 56.3121 46.6309 56.5756C45.5447 56.6188 44.4399 56.3982 43.555 56.0579C43.0882 55.8785 42.8019 55.7118 42.3858 55.456C42.1652 55.3204 42.1072 55.296 41.8471 55.1122C41.8138 55.0888 41.6637 54.981 41.6267 54.948C41.3323 54.6842 41.5476 54.9558 41.3527 54.6424ZM45.202 29.9798L44.408 30.5796C44.2783 30.8837 44.1624 30.9492 44.0093 31.3039C43.4204 31.1332 42.9701 30.8802 42.3884 30.6646C41.8917 30.4806 41.3246 30.3295 40.8236 30.239C40.3856 30.2088 40.4923 30.3082 40.2156 30.0541C39.5023 30.1663 38.0136 29.851 37.5458 30.2933L38.9233 30.2482C38.7421 32.5427 35.8918 30.7639 32.6483 34.1388C29.5138 37.4004 31.2323 40.116 28.6133 40.413L28.7231 38.9615H28.6017C28.6017 41.1771 28.552 42.0505 29.1235 43.7535C29.5169 44.9255 30.2575 46.3104 31.0437 47.1523C31.8909 48.0595 32.8154 48.9379 33.998 49.5211C37.0819 51.0422 35.4548 49.4017 36.4883 52.4784C38.1422 57.4026 42.7687 60.1656 47.9075 59.4589C48.6804 59.3527 49.5745 59.2261 50.0568 58.8228C48.5975 59.1143 48.1727 59.3452 46.3699 59.389C46.6472 57.7079 47.5169 58.3923 49.6385 57.5191C52.1511 56.4849 53.7383 54.7576 54.6397 52.2502C54.8723 51.6031 54.957 50.8168 55.1705 50.2503C55.5428 49.2634 56.2381 49.4584 56.7384 49.0794C56.6416 48.6871 56.531 47.2908 56.531 46.8938L55.9656 45.4887C55.7691 44.9108 55.5327 44.4826 55.2607 44.0147C54.9535 43.4655 54.7219 43.1395 54.3397 42.6637C53.9879 42.2258 53.5204 41.8174 53.2556 41.4428C52.8543 41.2687 52.5376 40.937 52.064 40.6288C51.5967 40.3247 51.2827 40.1639 50.7725 39.9284L49.3054 39.3435C48.1445 39.0798 47.3529 38.9181 46.0783 38.9407C45.9194 38.9505 45.6152 38.9466 45.4826 38.9667C45.0475 39.0331 45.648 38.9026 45.2568 39.0121C44.9969 39.0848 45.113 39.0353 44.9654 39.1416L46.3341 39.0824C46.1806 39.9652 45.9924 40.2042 45.142 40.4073C43.1152 40.8914 41.5986 41.3572 40.0764 42.9312C36.854 46.2627 38.6462 48.9305 36.0039 49.2499L36.2229 47.1911C35.6681 47.0518 35.2563 46.8108 34.8424 46.5275C34.6086 46.3676 34.5086 46.3056 34.2597 46.1043C33.958 45.8603 34.0112 45.9525 33.7983 45.6316C33.3563 45.1724 33.3018 45.1886 32.9198 44.6524C32.6516 44.276 32.4473 43.9119 32.223 43.4475C30.0275 38.9015 33.3746 32.8244 39.267 33.0577C40.3762 33.1015 41.3714 33.381 42.253 33.8354C43.6922 34.5769 43.4668 34.6663 44.3233 35.3783L44.8038 35.8534C44.9188 36.0155 45.0088 36.1706 45.1447 36.3914C45.3571 36.7367 45.5842 37.1292 45.7454 37.5792C46.2747 37.5849 46.7244 37.496 47.2601 37.4867C47.5099 37.4826 47.9455 37.513 48.1603 37.4962C48.9216 37.4366 48.7101 37.4372 48.8165 37.2502C48.5749 36.5971 48.3926 36.0768 48.0724 35.5009C47.7775 34.9706 47.3236 34.415 47.1409 33.9968L46.2835 33.0389L45.2504 32.1322C45.4448 31.8684 45.5238 31.7714 45.756 31.5175L46.2481 30.9582C47.0406 31.4923 47.0325 31.1527 47.2095 31.8743C47.5849 31.806 52.9051 27.4082 57.747 32.6169C59.9999 34.1848 60.7122 40.955 56.6722 43.3382L57.2923 44.7658C58.2533 44.2162 59.5638 42.7255 60.1653 41.4474C61.2549 39.1324 60.5664 37.7601 62.5292 37.4813C62.4289 36.9292 62.3135 36.8773 62.4483 36.345C62.7236 33.9918 60.3702 31.1527 60.2286 30.7687C59.8752 30.5474 59.3439 29.9376 58.9541 29.5906C58.4808 29.1695 58.0804 28.883 57.5461 28.591C56.5952 28.0716 55.3319 27.4536 54.0424 27.3169C53.2871 27.1859 52.2434 27.1064 51.4454 27.1857L50.7844 27.3519L52.2483 27.3042C51.8883 29.6059 48.6982 28.1084 46.4029 30.8841L45.2023 29.9798H45.202Z" fill="#FECA5A"/>
<path fill-rule="evenodd" clip-rule="evenodd" d="M44.87 46.6764C44.87 45.6286 45.2579 44.838 46.3759 44.8549C47.4516 44.8711 47.8188 45.6321 47.8188 46.6764V51.7353C47.8188 54.3855 44.87 54.2453 44.87 51.8617V46.6764ZM50.258 53.6902C49.9681 52.8516 50.2063 52.743 50.65 52.1999C51.5595 51.0871 51.4472 50.1867 51.6552 49.1954C51.9521 47.7812 54.2218 48.246 52.5277 52.0426C51.8806 53.4933 51.4362 54.0438 50.258 53.69V53.6902ZM41.3529 54.6423C41.5478 54.956 41.3325 54.6841 41.6269 54.9478C41.6639 54.9809 41.8141 55.0887 41.8473 55.1121C42.1074 55.2959 42.1657 55.3203 42.386 55.4559C42.8021 55.7117 43.0884 55.8782 43.5552 56.0578C44.4401 56.3981 45.5449 56.6186 46.6312 56.5755C53.2624 56.312 55.5448 48.6451 52.1563 44.7009L51.9367 44.4704C51.3069 44.1131 50.6626 43.5795 49.7588 43.3024C43.997 41.5367 38.6295 46.3892 40.3275 52.4494C40.626 53.5141 41.2071 54.1956 41.3529 54.6423Z" fill="#F6B444"/>
<path fill-rule="evenodd" clip-rule="evenodd" d="M31.5214 27.2073C31.8607 27.9751 31.8565 28.5462 32.9209 28.6082C33.38 28.6351 33.7393 28.5361 34.0159 28.2917C34.4333 27.9232 34.2948 27.7519 34.5063 27.3821C34.7339 26.9841 36.0804 26.9466 36.5918 26.6831C40.1555 24.8466 39.5119 19.5621 35.7857 18.5238C34.45 18.1516 31.563 18.6614 30.6733 18.0545C30.1653 17.708 29.8643 16.75 30.3326 16.0214C31.2989 14.5175 36.2028 16.3235 37.2109 14.7776C37.6056 14.1723 37.5117 13.2294 36.9672 12.7917C36.4478 12.3744 35.4987 12.4487 34.6952 12.4487C34.1855 12.0412 34.5147 11.0022 33.0449 11.0022C31.6943 11.0022 31.9166 11.8421 31.4711 12.3611C31.1801 12.5676 30.0452 12.6759 29.5958 12.8897C26.5689 14.3291 26.2793 18.7415 29.1412 20.5885C31.4557 22.082 36.8021 20.0224 35.915 23.2291C35.2381 25.6758 29.0097 22.645 28.6449 25.483C28.4088 27.3212 30.1528 27.0325 31.5214 27.2071V27.2073Z" fill="#0E9347"/>
<path fill-rule="evenodd" clip-rule="evenodd" d="M58.975 38.3292C58.8666 39.4768 58.3868 40.5284 57.8572 41.2914C56.7894 42.8298 55.4551 41.8048 56.3512 40.6817C58.1979 38.3668 57.0166 36.3569 58.5341 36.7887C59.1771 36.9716 59.0337 37.7107 58.9752 38.3294L58.975 38.3292ZM53.7333 40.0979C54.5324 40.4764 56.0048 42.3223 56.509 43.3749C56.1137 43.6159 55.7781 43.9274 55.2613 44.0143C55.5333 44.4823 55.7697 44.9105 55.9663 45.4884L57.3229 44.838C57.4454 45.4385 57.7183 45.7307 57.5481 46.2968C58.0582 46.1276 58.1976 45.9925 58.5811 45.6819C59.6833 44.7898 59.8757 44.659 60.8144 43.3543C61.4273 42.5026 62.4953 40.3268 62.4995 38.9614C62.5976 38.2724 62.8434 36.8752 62.4485 36.3447C62.3137 36.877 62.4292 36.9289 62.5294 37.4809C60.5666 37.7596 61.2553 39.1318 60.1655 41.4471C59.5641 42.7251 58.2535 44.2159 57.2925 44.7655L56.6724 43.3379C60.7124 40.9547 60.0002 34.1847 57.7473 32.6166C57.7458 32.6179 56.2784 31.7585 55.8056 31.5916C52.7167 30.5009 50.4678 31.4319 48.293 33.0074L49.7483 35.4789C50.3279 36.6776 50.4447 37.9933 50.7692 38.1885C50.7692 37.0917 50.6712 35.4336 50.7952 34.4033C50.9223 33.3465 51.9037 32.7097 52.9909 33.2495C53.9584 33.7299 53.7258 35.1825 53.7258 36.3052C53.7256 37.5677 53.715 38.8385 53.7335 40.0977L53.7333 40.0979Z" fill="#F6B444"/>
<path fill-rule="evenodd" clip-rule="evenodd" d="M33.7986 45.6316C34.0116 45.9526 33.9582 45.8605 34.2599 46.1044C34.5088 46.3057 34.6089 46.3677 34.8426 46.5276C35.2567 46.8108 35.6684 47.0518 36.2232 47.1911C36.3102 46.5587 36.5326 45.8921 36.7615 45.3203L37.5039 43.9054C37.6305 43.6964 37.4997 43.9617 37.6595 43.6263C37.5384 43.489 37.6048 43.6662 37.5236 43.3619L37.4792 40.1C37.4792 39.1986 37.3394 37.195 37.7649 36.5818C38.3876 35.6843 39.8799 35.901 40.2675 36.8136C40.5517 37.4826 40.4043 39.5968 40.4415 40.4606C41.2305 40.0076 42.8023 38.1212 45.7773 37.6881L46.0788 38.941C47.3533 38.9184 48.145 39.0801 49.3058 39.3438L48.8583 37.3534C48.8517 37.298 48.8328 37.284 48.8165 37.2507C48.7101 37.4375 48.9217 37.4371 48.1604 37.4967C47.9455 37.5135 47.5099 37.4829 47.2601 37.4872C46.7244 37.4964 46.2747 37.5854 45.7454 37.5797C45.5843 37.1297 45.3571 36.7372 45.1447 36.3919C45.0088 36.1711 44.9188 36.016 44.8038 35.8539L44.3234 35.3787C44.1736 35.5759 44.3792 35.4922 44.1079 35.3844C43.5618 35.1676 42.1969 33.8343 39.2604 34.118C34.0218 34.6241 31.0745 40.1535 33.4096 44.7985C33.704 45.3841 33.9246 45.4353 33.7983 45.6323L33.7986 45.6316Z" fill="#F6B444"/>
<path fill-rule="evenodd" clip-rule="evenodd" d="M47.21 31.8745L47.1539 32.1676C47.6282 32.227 47.9335 32.7195 48.0777 33.2042L47.1416 33.997C47.3241 34.4152 47.7782 34.9708 48.0731 35.5011C48.3933 36.0771 48.5756 36.5973 48.8172 37.2504C48.8335 37.2837 48.8524 37.2977 48.859 37.3531L49.3065 39.3435L50.7737 39.9284L50.7666 38.4044C51.9904 38.7659 52.8952 39.5821 53.7337 40.0982C53.7153 38.839 53.7258 37.5682 53.726 36.3058C53.7262 35.1828 53.9587 33.7302 52.9911 33.25C51.9039 32.7103 50.9223 33.3471 50.7954 34.4038C50.6716 35.4341 50.7695 37.0922 50.7695 38.1891C50.4449 37.9939 50.3282 36.6782 49.7485 35.4794L48.2932 33.008C50.4682 31.4324 52.7169 30.5012 55.8058 31.5921C56.2788 31.7591 57.746 32.6185 57.7475 32.6172C52.9058 27.4085 47.5854 31.8062 47.21 31.8745Z" fill="#F19920"/>
<path fill-rule="evenodd" clip-rule="evenodd" d="M49.8445 17.0592C46.1757 18.2816 48.0077 23.8478 51.7446 22.5582C55.2841 21.3367 53.6265 15.7992 49.8445 17.0592Z" fill="#0E9347"/>
<path fill-rule="evenodd" clip-rule="evenodd" d="M14.4062 17.0512C10.8289 18.1539 12.3846 23.6426 16.1368 22.6211C17.4582 22.2612 18.6887 20.7606 18.1247 18.9187C17.7154 17.5822 16.2245 16.4906 14.4062 17.0514V17.0512Z" fill="#0E9347"/>
<path fill-rule="evenodd" clip-rule="evenodd" d="M44.8701 46.6765V51.8618C44.8701 54.2454 47.819 54.3856 47.819 51.7354V46.6765C47.819 45.6322 47.4517 44.8714 46.376 44.855C45.258 44.8381 44.8701 45.6287 44.8701 46.6765Z" fill="#F19920"/>
<path fill-rule="evenodd" clip-rule="evenodd" d="M60.2285 30.7686C60.3701 31.1529 62.7235 33.9917 62.4482 36.3449C62.8431 36.8755 62.597 38.2725 62.4992 38.9616C64.1911 38.9616 65.545 37.7842 65.545 36.1283C65.3574 35.7427 65.1246 34.4369 64.8776 33.8108C64.5091 32.876 63.235 30.6173 62.5337 30.3395C61.9272 30.0994 60.6929 30.4089 60.2285 30.7686Z" fill="#0D8944"/>
<path fill-rule="evenodd" clip-rule="evenodd" d="M37.6603 43.6264C38.2912 42.5457 39.604 41.3168 40.5986 40.6699C41.5154 40.0736 43.6381 39.0138 44.9667 39.1419C45.1145 39.0357 44.9983 39.0852 45.258 39.0125C45.6492 38.9029 45.0487 39.0335 45.4839 38.9671C45.6165 38.9469 45.9206 38.9509 46.0796 38.941L45.7781 37.6882C42.8031 38.1213 41.2315 40.0079 40.4423 40.4607C40.4051 39.5969 40.5524 37.4827 40.2683 36.8137C39.8806 35.9011 38.3886 35.6846 37.7657 36.5819C37.3402 37.1951 37.48 39.1987 37.48 40.1001L37.5244 43.362C37.6058 43.6663 37.5392 43.4893 37.6603 43.6264Z" fill="#F19920"/>
<path fill-rule="evenodd" clip-rule="evenodd" d="M33.7989 45.6316C33.9251 45.4347 33.7045 45.3837 33.4101 44.7979C31.075 40.1528 34.0221 34.6236 39.2609 34.1174C42.1974 33.8337 43.5621 35.1669 44.1084 35.3838C44.3799 35.4916 44.1741 35.5753 44.3239 35.3781C43.4674 34.6661 43.6925 34.5765 42.2535 33.8352C41.3719 33.3809 40.3767 33.1016 39.2675 33.0575C33.3753 32.8242 30.028 38.9015 32.2235 43.4473C32.4478 43.912 32.6523 44.2758 32.9204 44.6522C33.3025 45.1885 33.3569 45.1723 33.7989 45.6314V45.6316Z" fill="#F19920"/>
<path fill-rule="evenodd" clip-rule="evenodd" d="M41.3524 54.6424C41.2066 54.1955 40.6252 53.5142 40.327 52.4496C38.629 46.3894 43.9963 41.5369 49.7583 43.3025C50.6621 43.5794 51.3064 44.1131 51.9362 44.4706C49.2633 41.424 44.5381 40.8146 41.1877 43.9124C38.2281 46.6487 38.3158 52.1547 41.3524 54.6424Z" fill="#F19920"/>
<path fill-rule="evenodd" clip-rule="evenodd" d="M31.7875 32.9069C31.3704 33.3989 30.9457 33.809 30.5073 34.4103L29.7359 35.6631C29.6558 35.8049 29.6912 35.7466 29.6015 35.8921L29.5056 36.029C29.2508 37.013 28.7716 37.7405 28.723 38.9616L28.6133 40.4131C31.2325 40.1163 29.5138 37.4005 32.6482 34.1389C35.8917 30.764 38.7418 32.5426 38.9232 30.2483L37.5458 30.2934C36.5736 30.1707 34.9719 30.8378 34.2552 31.1927C33.134 31.748 32.611 32.325 31.7875 32.9066V32.9069Z" fill="#FFE178"/>
<path fill-rule="evenodd" clip-rule="evenodd" d="M50.0575 58.8229C50.7966 58.7489 52.2281 57.8093 52.7266 57.4297C54.7442 55.8929 56.1882 53.4913 56.5913 50.909C56.645 50.5657 56.7727 49.2213 56.7395 49.0796C56.2393 49.4586 55.5439 49.2636 55.1717 50.2505C54.9579 50.817 54.8733 51.6032 54.6408 52.2503C53.7392 54.7577 52.1522 56.4851 49.6397 57.5193C47.5181 58.3925 46.6484 57.7081 46.3711 59.3892C48.1738 59.3454 48.5989 59.1147 50.0579 58.8229H50.0575Z" fill="#F6B545"/>
<path fill-rule="evenodd" clip-rule="evenodd" d="M37.6603 43.6264C37.5004 43.9615 37.6313 43.6965 37.5046 43.9054L36.7622 45.3204C36.5333 45.8924 36.311 46.559 36.2239 47.1912L36.0049 49.25C38.6474 48.9306 36.8552 46.2628 40.0774 42.9313C41.5998 41.3573 43.1162 40.8916 45.143 40.4074C45.9931 40.2043 46.1816 39.9653 46.3351 39.0825L44.9664 39.1417C43.6378 39.0135 41.5151 40.0734 40.5983 40.6696C39.604 41.3165 38.291 42.5457 37.6601 43.6261L37.6603 43.6264Z" fill="#FFE178"/>
<path fill-rule="evenodd" clip-rule="evenodd" d="M45.2021 29.9799L46.4028 30.8842C48.6981 28.1084 51.8882 29.6059 52.2481 27.3042L50.7843 27.352C49.8229 27.2218 48.3324 27.8827 47.5694 28.2606C47.0825 28.5016 46.723 28.7215 46.2986 29.0179C45.8849 29.3071 45.3163 29.5855 45.2021 29.9796V29.9799Z" fill="#FFE178"/>
<path fill-rule="evenodd" clip-rule="evenodd" d="M50.2579 53.6903C51.4361 54.0441 51.8805 53.4934 52.5277 52.043C54.2218 48.2463 51.9522 47.7815 51.6551 49.1958C51.4471 50.1868 51.5594 51.0874 50.6499 52.2002C50.2062 52.7433 49.968 52.8517 50.2579 53.6905V53.6903Z" fill="#FECA5A"/>
<path fill-rule="evenodd" clip-rule="evenodd" d="M58.9754 38.3293C59.0339 37.7106 59.1773 36.9715 58.5343 36.7886C57.017 36.3568 58.1981 38.3667 56.3514 40.6816C55.4553 41.8047 56.7896 42.8297 57.8574 41.2912C58.3872 40.5282 58.8668 39.4767 58.9752 38.329L58.9754 38.3293Z" fill="#FECA5A"/>
<path fill-rule="evenodd" clip-rule="evenodd" d="M53.2561 41.4425C53.5208 41.8171 53.9883 42.2255 54.3402 42.6634C54.7224 43.139 54.9539 43.4651 55.2611 44.0143C55.7779 43.9271 56.1134 43.6159 56.5088 43.3749C56.0046 42.3223 54.5324 40.4764 53.733 40.0979C53.6871 40.7827 53.6968 41.0769 53.2559 41.4425H53.2561Z" fill="#F19920"/>
<path fill-rule="evenodd" clip-rule="evenodd" d="M50.7734 39.9283C51.2836 40.1638 51.5976 40.3244 52.0649 40.6287C52.5385 40.9369 52.8552 41.2686 53.2565 41.4427C53.6974 41.0771 53.6877 40.7829 53.7337 40.0981C52.8952 39.582 51.9903 38.7658 50.7666 38.4043L50.7736 39.9283H50.7734Z" fill="#E78825"/>
<path fill-rule="evenodd" clip-rule="evenodd" d="M46.2843 33.039C46.5176 32.8048 46.8912 32.4387 47.154 32.1677L47.2101 31.8746C47.0333 31.153 47.0414 31.4926 46.2487 30.9585L45.7565 31.5178C45.5243 31.7717 45.4454 31.8687 45.251 32.1325L46.2841 33.0392L46.2843 33.039Z" fill="#F6B443"/>
<path fill-rule="evenodd" clip-rule="evenodd" d="M55.9658 45.4888L56.5312 46.8938C56.845 46.7804 57.3745 46.6218 57.5475 46.2969C57.7178 45.7308 57.4449 45.4386 57.3224 44.8381L55.9658 45.4885V45.4888Z" fill="#F19920"/>
<path fill-rule="evenodd" clip-rule="evenodd" d="M44.4086 30.5798C43.9811 30.0882 41.4562 30.0082 40.8242 30.2391C41.3251 30.3296 41.8923 30.4807 42.389 30.6648C42.9707 30.8803 43.421 31.1333 44.0099 31.304C44.1629 30.9493 44.279 30.884 44.4086 30.5798Z" fill="#0E9347"/>
<path fill-rule="evenodd" clip-rule="evenodd" d="M46.2842 33.0389L47.1416 33.9969L48.0777 33.2041C47.9332 32.7193 47.6282 32.2271 47.1539 32.1675C46.8911 32.4385 46.5177 32.8045 46.2842 33.0387V33.0389Z" fill="#E78825"/>
</g>
<defs>
<clipPath id="clip0_2711_423">
<rect width="65" height="59" fill="white" transform="translate(0.544922 0.568359)"/>
</clipPath>
</defs>
</svg>
