<svg width="69" height="69" viewBox="0 0 69 69" fill="none" xmlns="http://www.w3.org/2000/svg">
<g clip-path="url(#clip0_2711_454)">
<path fill-rule="evenodd" clip-rule="evenodd" d="M37.8425 16.1104L40.947 14.574C41.3276 14.9524 41.7946 15.9862 41.9504 16.5599L40.739 17.2432L42.1667 21.0038L44.4924 20.2679L45.2726 22.4418L40.9577 23.8662C40.451 23.3297 38.3321 17.3262 37.8425 16.1104ZM47.2276 15.9836C46.7055 12.8033 51.2502 12.4273 51.6846 15.1567C52.1732 18.2265 47.6937 18.8225 47.2276 15.9836ZM53.94 5.96221L61.4228 12.3094C61.6478 12.4993 61.7686 12.5645 61.9837 12.7624C62.1983 12.96 62.2331 13.0398 62.4217 13.1866C61.7092 13.8574 59.9454 15.9519 59.1648 16.3258L57.7893 14.8684C58.0425 14.2842 58.6544 13.7984 59.0727 13.407C58.8205 13.0232 54.4457 9.28547 53.9655 9.07411C53.6271 9.49906 52.9318 10.2915 52.3647 10.563L50.9892 9.10557C51.2899 8.41797 53.3344 6.53965 53.9399 5.96221H53.94ZM32.4542 13.2463L36.6223 23.5584C36.8938 24.2157 37.9353 26.5406 37.9792 27.0768L42.9126 26.4753C49.0826 25.5733 50.3866 25.3888 55.6867 22.61C59.3758 20.6758 61.9121 17.9374 64.7895 15.0112C65.5056 14.2829 67.1111 12.8174 67.5874 12.0938C67.3491 11.763 66.3211 10.9776 65.919 10.621C65.3364 10.1043 64.8053 9.70008 64.219 9.18032L53.9874 0.568359L51.9624 2.831C51.6209 3.24636 51.2655 3.51743 50.9057 3.91743C49.203 5.81089 47.2541 7.42826 45.0902 8.80848C44.2265 9.35948 43.2818 9.91453 42.373 10.3672C39.6813 11.7082 37.2319 12.3381 34.2842 12.9465C33.6806 13.071 33.0272 13.1106 32.4541 13.2463H32.4542Z" fill="#6AAC54"/>
<path fill-rule="evenodd" clip-rule="evenodd" d="M16.3045 56.4478L22.2545 52.4809C22.1016 51.7066 21.5625 51.4981 22.0104 50.7557C22.3867 50.1319 22.8712 50.1149 23.8089 50.1237C25.368 50.1385 26.9292 50.1128 28.4878 50.1322C30.7777 50.106 32.5999 50.5621 33.8719 49.2638C34.3957 48.7292 34.3454 48.4945 34.7211 47.9206C35.1346 48.5562 35.4022 49.6319 36.8085 50.0215C37.593 50.2389 39.9796 50.1276 40.9545 50.1276C42.513 50.1276 44.0752 50.1385 45.6334 50.1237C46.5436 50.1151 46.9599 50.1005 47.3714 50.6689C47.9345 51.4462 47.3495 51.6692 47.1878 52.476L53.1378 56.4378C53.2371 56.3385 53.1945 56.4032 53.3186 56.2125C53.4105 56.0715 53.3704 56.1383 53.4723 55.9445L55.6415 51.5211C56.5453 49.5555 56.6212 47.5374 55.017 45.7674C54.8078 45.5365 54.2262 45.0933 53.9853 44.9437C52.567 44.063 50.7965 44.3649 49.0295 44.3649C46.5267 44.3649 44.024 44.3649 41.5211 44.3649C39.1082 44.3649 36.8735 43.891 35.5651 45.223C35.0505 45.7468 35.0914 46.0034 34.7211 46.5718C34.2999 45.9361 34.3915 45.7199 33.8044 45.1528C32.5201 43.9126 30.1658 44.3648 27.9211 44.3648L16.9031 44.3973C15.1096 44.6973 13.4244 46.4064 13.2017 48.269C13.0388 49.6307 13.3826 50.5811 13.756 51.4225L16.1817 56.2953C16.1955 56.315 16.231 56.3568 16.2425 56.3724C16.2539 56.3879 16.2823 56.424 16.3045 56.4476V56.4478Z" fill="#F9C7B2"/>
<path fill-rule="evenodd" clip-rule="evenodd" d="M21.0801 66.2632L21.1273 67.4157L48.3209 67.4158L48.359 66.2632C48.2013 64.3102 48.3272 61.9216 48.3244 59.9203C48.321 57.3643 47.2384 57.1389 44.921 57.0229L38.121 57.0428H31.321L24.521 57.0229C22.1962 57.1392 21.1203 57.3656 21.1175 59.9204C21.1153 61.9008 21.2485 64.3392 21.0801 66.2631V66.2632Z" fill="#353535"/>
<path fill-rule="evenodd" clip-rule="evenodd" d="M14.3193 7.4818H17.7389L17.723 9.79072H14.3212L14.3193 7.4818ZM16.5878 2.58541C14.6236 2.58541 13.0145 2.15321 11.2045 2.15321C7.34237 2.15321 4.17432 3.5989 1.85449 5.17863L5.17417 10.879C5.55104 11.5162 8.37567 16.1054 8.51283 16.704C9.08127 16.5496 10.0169 15.7301 10.6357 15.4053C11.3488 15.0309 12.1224 14.5917 12.9556 14.3068C19.4893 12.0731 19.5511 14.6989 26.7405 11.0374C27.3575 10.7232 28.4556 10.0748 29.0544 9.93287C29.0032 9.30712 28.4996 8.18998 28.2647 7.56636L25.6544 0.568359C24.2995 0.682995 20.087 2.58531 16.5877 2.58531L16.5878 2.58541Z" fill="#6BAD55"/>
<path fill-rule="evenodd" clip-rule="evenodd" d="M19.6548 23.6193C19.8257 24.5132 20.5274 26.5443 20.8454 27.2059C22.0816 27.506 22.9505 28.401 23.2679 29.6399C24.4028 34.0701 17.6802 36.0342 16.6164 31.0004C15.2337 31.4694 14.0314 32.0698 12.4199 32.4986C11.4206 32.7646 8.50088 33.1092 7.84477 33.56C7.83533 33.8237 9.44651 40.1841 9.78773 40.9074C11.0989 40.9074 12.5461 40.7364 13.8735 40.5965C19.5405 39.9988 23.5891 38.5459 27.8137 34.7475C28.0432 34.541 28.1555 34.3829 28.3798 34.1707C29.0653 33.5221 33.2491 29.8963 33.5877 29.3821L26.7316 19.3544C26.4146 18.866 25.9309 18.3704 25.7961 17.8567C25.0859 18.0495 21.5914 22.0117 20.5348 22.8786C20.2 23.1533 20.0437 23.3451 19.6549 23.6194L19.6548 23.6193Z" fill="#4A7F38"/>
<path fill-rule="evenodd" clip-rule="evenodd" d="M56.2508 35.1417H59.6566V37.4527H56.2508V35.1417ZM52.8537 30.8226H49.8787C48.4133 30.8226 47.3314 30.5345 46.0537 30.5345C46.2196 31.2583 46.5143 31.9192 46.7456 32.5682L49.2814 39.4978C49.5529 40.0819 49.4448 39.8325 50.2114 39.9927C50.9978 40.157 51.7466 40.3111 52.4688 40.4344C56.8377 41.1798 61.2998 41.0657 65.6641 40.2485C66.4062 40.1096 66.8287 39.899 67.5869 39.899C67.5869 39.2108 65.4873 28.5835 65.3203 28.2295C64.2505 28.483 61.604 29.4409 59.5136 29.96C57.7081 30.4083 55.0632 30.8227 52.8536 30.8227L52.8537 30.8226Z" fill="#6AAC54"/>
<path fill-rule="evenodd" clip-rule="evenodd" d="M9.48111 25.9427L12.7519 24.866C13.1411 25.4273 13.3876 26.3632 13.513 27.0827L10.2207 28.1576C9.88954 27.6612 9.52442 26.6515 9.48111 25.9427ZM7.84465 33.5599C8.50077 33.1091 11.4205 32.7645 12.4198 32.4985C14.0313 32.0696 15.2337 31.4694 16.6162 31.0004C17.2594 30.5995 18.2419 30.1091 18.9107 29.7267C19.6978 29.2766 20.453 28.7151 21.096 28.2575L20.8455 27.2059C20.5274 26.5441 19.8257 24.5131 19.6549 23.6192L17.7423 17.8494C17.1288 18.1753 16.722 18.5633 16.1032 18.9485C9.19012 23.2506 3.88701 22.6275 1.85449 23.6193L5.23404 33.9991C6.1586 33.9717 6.91737 33.5789 7.84486 33.56L7.84465 33.5599Z" fill="#6AAC54"/>
<path fill-rule="evenodd" clip-rule="evenodd" d="M27.9209 44.3649C30.1655 44.3649 32.5199 43.9127 33.8041 45.1529C34.3913 45.72 34.2997 45.9362 34.7209 46.572C35.0912 46.0035 35.0503 45.7469 35.5648 45.2231C36.8733 43.891 39.108 44.365 41.5209 44.365C41.5209 41.5584 40.0405 39.1481 37.5553 38.0249C34.1305 36.4771 30.0049 38.0079 28.4865 41.4826C28.1013 42.364 27.9209 43.0736 27.9209 44.365V44.3649Z" fill="#EDAD2E"/>
<path fill-rule="evenodd" clip-rule="evenodd" d="M28.4873 50.1321C28.9403 50.9866 29.3329 51.6464 30.0082 52.3267C30.6596 52.983 31.2933 53.4851 31.3206 54.7378H38.1206C38.148 53.4851 38.7817 52.983 39.4331 52.3267C40.0968 51.658 40.5131 50.9747 40.954 50.1276C39.9791 50.1276 37.5925 50.239 36.808 50.0215C35.4018 49.632 35.1342 48.5561 34.7206 47.9207C34.3449 48.4946 34.3951 48.7293 33.8714 49.2639C32.5994 50.5622 30.7771 50.1061 28.4873 50.1322V50.1321Z" fill="#EDAD2E"/>
<path fill-rule="evenodd" clip-rule="evenodd" d="M44.921 57.023C47.2384 57.1389 48.321 57.3644 48.3245 59.9204C48.3272 61.9216 48.2014 64.3102 48.3591 66.2633L51.957 59.0119C52.2839 58.3471 53.0022 57.0855 53.1376 56.4379L47.1876 52.4761C47.0755 52.5787 47.1449 52.4831 47.0068 52.6898L44.9209 57.0231L44.921 57.023Z" fill="#54259F"/>
<path fill-rule="evenodd" clip-rule="evenodd" d="M16.3037 56.4479L21.0795 66.2633C21.2479 64.3393 21.1147 61.9009 21.1169 59.9205C21.1197 57.3657 22.1956 57.1393 24.5204 57.0231C24.4687 56.8123 22.6584 52.8396 22.2537 52.481L16.3037 56.4479Z" fill="#54259F"/>
<path fill-rule="evenodd" clip-rule="evenodd" d="M53.94 5.96216C53.3345 6.53971 51.2901 8.41792 50.9893 9.10552L52.3648 10.5629C52.9319 10.2913 53.6271 9.49902 53.9656 9.07406C54.4458 9.28542 58.8206 13.0231 59.0728 13.407C58.6545 13.7983 58.0426 14.2843 57.7894 14.8683L59.1649 16.3258C59.9455 15.952 61.7093 13.8573 62.4218 13.1866C62.2332 13.0397 62.1984 12.9599 61.9838 12.7623C61.7688 12.5644 61.648 12.4993 61.4229 12.3093L53.9401 5.96216H53.94Z" fill="#4A7F38"/>
<path fill-rule="evenodd" clip-rule="evenodd" d="M37.8428 16.1104C38.3324 17.3262 40.4513 23.3298 40.958 23.8662L45.2729 22.4418L44.4927 20.2679L42.167 21.0038L40.7393 17.2432L41.9507 16.5599C41.7948 15.9863 41.3279 14.9524 40.9473 14.574L37.8428 16.1104Z" fill="#4A7F38"/>
<path fill-rule="evenodd" clip-rule="evenodd" d="M16.6164 31.0003C17.6803 36.034 24.4029 34.0699 23.2679 29.6397C22.9506 28.401 22.0817 27.5059 20.8454 27.2058L21.096 28.2575C20.453 28.7151 19.6978 29.2765 18.9107 29.7266C18.242 30.109 17.2594 30.5995 16.6162 31.0003H16.6164Z" fill="#FDC043"/>
<path fill-rule="evenodd" clip-rule="evenodd" d="M64.1876 51.2802H61.9209V53.5853H64.1876V55.8903H66.4542V53.5853H68.7209V51.2802H66.4542V48.9751H64.1876V51.2802Z" fill="#DFDFDF"/>
<path fill-rule="evenodd" clip-rule="evenodd" d="M2.98737 52.4328H0.720703V54.7379H2.98737V57.0429H5.25404V54.7379H7.5207V52.4328H5.25404V50.1277H2.98737V52.4328Z" fill="#DFDFDF"/>
<path fill-rule="evenodd" clip-rule="evenodd" d="M8.65436 63.9582H6.3877V66.2632H8.65436V68.5683H10.921V66.2632H13.1877V63.9582H10.921V61.6531H8.65436V63.9582Z" fill="#DFDFDF"/>
<path fill-rule="evenodd" clip-rule="evenodd" d="M58.5205 64.8226C58.5205 68.3088 63.0538 68.3088 63.0538 64.8226C63.0538 63.7778 62.0712 62.8057 60.5038 62.8057C59.6192 62.8057 58.5205 63.923 58.5205 64.8226Z" fill="#DFDFDF"/>
<path fill-rule="evenodd" clip-rule="evenodd" d="M47.2272 15.9837C47.6934 18.8226 52.173 18.2266 51.6842 15.1569C51.2497 12.4275 46.7051 12.8036 47.2272 15.9837Z" fill="#FDC043"/>
<path fill-rule="evenodd" clip-rule="evenodd" d="M31.3203 57.0429H38.1203V54.7378H31.3203V57.0429Z" fill="#EDB6A4"/>
<path fill-rule="evenodd" clip-rule="evenodd" d="M9.48047 25.9427C9.52378 26.6514 9.8889 27.6612 10.2201 28.1576L13.5124 27.0826C13.3868 26.3632 13.1404 25.4272 12.7513 24.866L9.48047 25.9427Z" fill="#FDC043"/>
<path fill-rule="evenodd" clip-rule="evenodd" d="M14.3202 9.79061H17.7221L17.738 7.48169H14.3184L14.3202 9.79061Z" fill="#FDC043"/>
<path fill-rule="evenodd" clip-rule="evenodd" d="M56.251 37.4527H59.6568V35.1416H56.251V37.4527Z" fill="#FDC043"/>
</g>
<defs>
<clipPath id="clip0_2711_454">
<rect width="68" height="68" fill="white" transform="translate(0.720703 0.568359)"/>
</clipPath>
</defs>
</svg>
