<svg width="16" height="21" viewBox="0 0 16 21" fill="none" xmlns="http://www.w3.org/2000/svg">
<path d="M13.4996 11.0958C13.4996 9.40832 14.3676 7.96559 15.5998 7.35865C15.2568 6.893 14.7969 6.45521 14.1779 5.99752C13.3769 5.40451 11.6025 5.33685 10.4393 5.64529C9.55589 5.87812 8.8028 6.32785 8.40038 6.34775C8.03629 6.36765 7.25446 5.8622 6.36148 5.64529C5.28454 5.38262 4.10987 5.52988 3.30312 5.99752C0.957619 7.35865 0.582031 8.74964 0.582031 11.6231C0.582031 14.9344 1.73754 17.7423 4.32066 19.7123C4.88787 20.1442 5.90732 20.3989 6.70066 20.0646C7.38285 19.776 7.74694 19.4238 8.40038 19.3621C9.35468 19.2726 9.79925 19.6049 10.2592 19.9014C10.6769 20.17 11.6408 20.3869 12.139 20.0666C13.8847 18.9442 15.2587 17.1095 15.985 14.9922C14.5516 14.5146 13.4996 12.9524 13.4996 11.0958ZM11.4587 3.53593C12.1524 2.40563 12.1543 0.716153 12.139 0.722123C11.8516 0.821621 10.8819 0.586805 9.41983 1.7768C8.91011 2.19271 8.28349 3.21555 8.05929 3.88617C7.88874 4.3956 7.72203 5.6433 7.71819 5.64529C7.70095 5.64728 8.83921 5.58161 9.41792 5.29307C10.012 4.99856 11.0103 4.26824 11.4587 3.53593Z" fill="#D93804"/>
</svg>
