<svg width="25" height="25" viewBox="0 0 25 25" fill="none" xmlns="http://www.w3.org/2000/svg">
<path d="M13.8564 20.0391C15.8737 19.7824 17.7176 18.7672 19.0133 17.1999C20.3089 15.6325 20.9592 13.6306 20.8318 11.601C20.7045 9.57148 19.8091 7.66656 18.3277 6.27345C16.8463 4.88035 14.89 4.1036 12.8564 4.10107C10.8204 4.09956 8.86039 4.87441 7.37578 6.26775C5.89117 7.66109 4.99369 9.56807 4.86619 11.6001C4.73869 13.6322 5.39078 15.6364 6.68959 17.2043C7.9884 18.7723 9.83618 19.7861 11.8564 20.0391V14.1011H9.85645V12.1011H11.8564V10.4471C11.8564 9.11007 11.9964 8.62507 12.2564 8.13607C12.5126 7.65226 12.9084 7.25676 13.3924 7.00107C13.7744 6.79607 14.2494 6.67307 15.0794 6.62007C15.4084 6.59907 15.8344 6.62507 16.3574 6.70007V8.60007H15.8564C14.9394 8.60007 14.5604 8.64307 14.3344 8.76407C14.1996 8.83343 14.0898 8.94322 14.0204 9.07807C13.9004 9.30407 13.8564 9.52807 13.8564 10.4461V12.1011H16.3564L15.8564 14.1011H13.8564V20.0391ZM12.8564 22.1011C7.33345 22.1011 2.85645 17.6241 2.85645 12.1011C2.85645 6.57807 7.33345 2.10107 12.8564 2.10107C18.3794 2.10107 22.8564 6.57807 22.8564 12.1011C22.8564 17.6241 18.3794 22.1011 12.8564 22.1011Z" fill="#54259F"/>
</svg>
