<svg width="82" height="78" viewBox="0 0 82 78" fill="none" xmlns="http://www.w3.org/2000/svg">
<g clip-path="url(#clip0_2711_5193)">
<path fill-rule="evenodd" clip-rule="evenodd" d="M16.8377 55.1025C16.5289 55.5683 16.6431 55.479 15.7561 55.9377C14.9365 56.3614 12.8866 57.3796 12.438 57.9856C12.741 59.8246 12.5263 76.8955 12.5161 80.247C12.5012 85.1766 16.7376 84.0832 19.8587 84.0832C23.6684 84.0832 27.4781 84.0832 31.2878 84.0832L31.2859 51.5118L24.1375 51.4219C22.2848 52.0192 18.1016 55.0232 16.8377 55.1023V55.1025Z" fill="#6536B1"/>
<path fill-rule="evenodd" clip-rule="evenodd" d="M31.2876 84.0832H43.6574L43.6586 51.5117H31.2856L31.2876 84.0832Z" fill="#FD76A8"/>
<path fill-rule="evenodd" clip-rule="evenodd" d="M43.6572 84.083L51.8466 84.0019C55.2177 83.5738 54.9562 81.127 54.956 77.8115L54.9607 54.5441C54.9686 52.8236 54.9073 51.8121 53.2729 51.5622L43.6584 51.5117L43.6574 84.0832L43.6572 84.083Z" fill="#6536B1"/>
<path fill-rule="evenodd" clip-rule="evenodd" d="M21.4883 20.3746C25.2428 20.6669 27.9966 23.354 28.3797 27.0637C28.9102 32.2013 25.4013 35.8371 25.1639 37.1735L25.8393 38.4866L21.4643 40.9124L11.918 46.258L16.8372 55.1024C18.1011 55.0232 22.2841 52.0191 24.137 51.4219C24.6497 51.1433 25.2083 50.8033 25.7563 50.4898C26.3269 50.1633 26.8069 49.9141 27.4617 49.553C28.6434 48.9015 29.7193 48.2104 30.9147 47.6678L25.8519 38.4842L29.2304 36.5742C29.3795 35.9753 30.4821 34.6184 30.9027 33.953C33.9577 29.1201 34.4051 21.7401 28.2424 19.5164C25.8435 18.651 22.463 18.9733 21.4879 20.3744L21.4883 20.3746Z" fill="#FC5694"/>
<path fill-rule="evenodd" clip-rule="evenodd" d="M51.8467 84.0022C52.4616 84.5451 57.6055 84.3112 58.3746 84.2936C60.473 84.2457 62.0062 83.2192 62.3905 81.605C62.9448 79.2773 62.63 59.2967 62.6501 55.1486C62.6717 50.6682 60.9693 51.3102 56.5329 51.3094C55.6982 51.3093 53.8871 51.0788 53.2729 51.5623C54.9073 51.8122 54.9686 52.8237 54.9607 54.5442L54.956 77.8116C54.9562 81.1271 55.2178 83.5741 51.8467 84.002V84.0022Z" fill="#4A1A97"/>
<path fill-rule="evenodd" clip-rule="evenodd" d="M8.44877 47.885C7.49688 48.6569 1.90473 51.5417 0.288605 52.5132C-4.47378 55.3762 -6.31099 54.6788 -1.34853 62.454C-1.00571 62.9911 -1.13707 62.9016 -0.589064 63.3184C0.974443 64.5077 2.35437 63.4978 4.03274 62.5025C4.79888 62.0483 5.35572 61.7938 6.12167 61.3396L12.4381 57.9857C12.8868 57.3796 14.9366 56.3615 15.7562 55.9378C16.6435 55.4793 16.529 55.5686 16.8379 55.1026L11.9186 46.2583L11.7969 46.2996C10.7075 46.7636 9.71363 47.6665 8.44896 47.885H8.44877Z" fill="#4A1A97"/>
<path fill-rule="evenodd" clip-rule="evenodd" d="M-5.60986 39.4181C-5.60986 41.5831 -5.2262 42.4594 -4.35403 43.7912C-2.01594 47.3605 2.20885 47.6586 5.65847 48.0241C6.45288 48.1084 7.28264 47.8526 8.44855 47.8851C9.71322 47.6668 10.7069 46.7637 11.7965 46.2997C11.5597 45.4446 11.0637 44.827 10.6412 44.0717C10.3076 43.4754 10.0022 42.5992 9.66767 41.9849C9.37727 42.5041 9.42184 42.3017 8.62251 42.068C7.17465 41.6447 7.22492 41.4881 5.21237 41.1585C3.19432 40.8278 1.395 41.1735 2.11304 38.731C3.63865 37.9974 7.36334 38.7568 9.155 39.482C9.98005 39.816 9.52119 39.4645 9.86244 40.0217C9.97534 39.8719 9.92213 39.9988 10.1314 39.6345C10.4079 39.1529 10.0763 39.7553 10.3455 39.1529C9.0851 39.0196 3.00131 34.3671 -2.6089 37.0893C-4.63343 38.0717 -4.78442 38.8022 -5.60967 39.4177L-5.60986 39.4181Z" fill="#DA2668"/>
<path fill-rule="evenodd" clip-rule="evenodd" d="M29.2311 36.5742L25.8525 38.4842L30.9153 47.6678C33.3848 46.1268 38.1287 43.8162 40.0396 42.6123C40.4537 42.3514 40.3576 42.4561 40.4383 42.2056C41.6239 39.7902 40.3451 38.5433 39.2785 36.6808C38.4168 35.1759 37.5931 32.5668 35.1399 33.5053C34.5499 33.3751 34.977 33.3942 34.4398 33.6128L29.2313 36.5744L29.2311 36.5742Z" fill="#4A1A97"/>
<path fill-rule="evenodd" clip-rule="evenodd" d="M16.8023 35.1678C18.3191 34.4055 19.4493 33.3042 21.4422 33.6087C21.5897 32.0307 23.0703 25.367 25.4528 26.5044C26.9411 27.215 25.3815 29.1799 24.9652 30.2806C24.6224 31.187 23.9401 34.287 23.691 34.7155C24.2032 35.5022 24.5808 36.5058 25.1641 37.1734C25.4017 35.8369 28.9106 32.2009 28.3799 27.0636C27.9968 23.3539 25.2433 20.6666 21.4885 20.3745C19.6162 21.259 17.9922 23.8881 17.3372 26.1473C16.9953 27.3266 16.7599 29.08 16.6278 30.2983C16.4261 32.1579 16.8023 33.5491 16.8023 35.1678Z" fill="#DA2668"/>
<path fill-rule="evenodd" clip-rule="evenodd" d="M13.8182 36.7435L11.9035 37.9476C11.0653 38.4256 10.8407 38.5094 10.3453 39.1534C10.0761 39.756 10.4079 39.1534 10.1313 39.6349C9.92214 39.9993 9.97516 39.8724 9.86226 40.0221L9.66748 41.9852C10.0021 42.5995 10.3074 43.4756 10.641 44.072C11.0635 44.8271 11.5595 45.4447 11.7963 46.3L11.918 46.2587L21.4644 40.9131C21.1724 40.2257 19.9329 37.9212 19.4681 37.3391C18.7701 36.4647 17.2851 35.4741 15.5797 36.1358C14.8993 35.9715 15.5977 35.8438 14.7199 36.2853C14.3657 36.4635 14.3931 36.5836 13.818 36.7439L13.8182 36.7435Z" fill="#FECC85"/>
<path fill-rule="evenodd" clip-rule="evenodd" d="M-5.60986 39.4179C-4.78462 38.8024 -4.63363 38.0719 -2.6091 37.0895C3.00111 34.3673 9.08491 39.0196 10.3453 39.1532C10.8406 38.5092 11.0653 38.4254 11.9035 37.9474L13.8182 36.7433C11.6604 34.5356 6.51846 32.1752 2.65672 32.0325C-1.62521 31.8742 -5.60967 34.805 -5.60967 39.4179H-5.60986Z" fill="#FC5694"/>
<path fill-rule="evenodd" clip-rule="evenodd" d="M35.1396 33.5052C37.5928 32.5667 38.4165 35.1758 39.2782 36.6807C40.3448 38.5432 41.6236 39.7901 40.4381 42.2055C41.3835 42.0372 42.559 41.2044 43.4284 40.7249C44.0819 40.3647 45.7475 39.5712 46.1627 39.1914C46.4041 38.9705 46.828 38.262 46.9515 37.9362C47.5287 36.4148 46.1871 35.0202 45.3616 33.4719C42.6923 28.4649 42.0247 29.2531 36.5261 32.453C36.292 32.5893 36.0964 32.6778 35.882 32.8125L35.1396 33.5052Z" fill="#6536B1"/>
<path fill-rule="evenodd" clip-rule="evenodd" d="M55.922 23.9978C55.922 28.8383 56.0074 34.7442 54.2957 38.9722C52.7722 42.7353 51.0485 43.617 51.6797 44.7807C53.6267 48.3699 57.1009 39.8661 57.5739 37.5742C58.296 34.0756 59.0013 28.9595 58.7755 24.8061C58.726 23.8966 58.5731 23.8436 58.5676 22.7871C58.5446 18.2995 55.8637 20.0167 55.7233 21.3861C55.6562 22.0412 55.922 22.97 55.922 23.998V23.9978Z" fill="#DFD1CE"/>
<path fill-rule="evenodd" clip-rule="evenodd" d="M69.3702 46.2519C70.1959 46.0015 70.5128 45.8557 71.3286 45.5568C73.6502 44.7064 74.5797 46.859 77.3152 46.859C77.3152 41.0827 75.949 42.9742 78.9166 39.3452C79.4234 38.7255 80.0852 38.334 80.1675 37.3506C77.7199 36.1844 75.8383 37.4799 74.2587 34.5184C73.8546 33.7608 73.5135 33.3693 73.0362 32.5649C72.6192 33.1834 72.7729 33.9659 72.7666 34.7284C72.7389 38.0868 71.4833 44.1695 69.3696 46.2523L69.3702 46.2519Z" fill="#FCB440"/>
<path fill-rule="evenodd" clip-rule="evenodd" d="M44.1055 16.7149C46.2729 16.3753 46.0183 15.2702 48.7659 16.3347C51.1046 17.2407 52.2593 18.4644 52.0563 16.1376C51.7679 12.8305 51.2509 12.7767 52.3646 11.3623C52.8466 10.7499 53.1747 10.3918 53.652 9.80805C54.1515 9.19705 54.673 8.87088 54.903 8.01559C53.6575 7.1876 50.8146 7.11761 49.9069 6.50251C49.0448 5.91842 48.4856 3.37946 47.1616 2.55322C48.655 5.67121 45.981 14.8704 44.1055 16.7149Z" fill="#FCB440"/>
<path fill-rule="evenodd" clip-rule="evenodd" d="M64.6828 26.4255C64.6828 27.0798 65.2463 27.6393 65.9053 27.6393C67.252 27.6393 67.3162 26.6014 67.6618 25.5396C68.5789 22.7213 70.2626 20.1139 72.3425 18.0487C72.3721 18.0193 72.4155 17.9777 72.4458 17.9489C77.9651 12.6996 81.3899 14.5404 81.3899 12.2639C81.3899 8.39821 72.2846 13.852 70.21 16.336C67.8534 19.1578 68.9041 17.4057 66.8842 20.7214C66.1603 21.9099 64.6826 24.7052 64.6826 26.4253L64.6828 26.4255Z" fill="#DFD1CE"/>
<path fill-rule="evenodd" clip-rule="evenodd" d="M44.1053 16.7147C45.9809 14.8702 48.6549 5.67103 47.1615 2.55305C47.1768 2.4581 47.6897 2.13408 46.8367 2.46278C46.0798 2.75464 45.5768 4.30105 45.1234 4.98127C43.6221 7.23363 44.0932 6.68443 39.2144 7.81305C39.2744 8.52894 39.3783 8.64806 39.77 9.08204L41.6392 11.2722C43.0934 13.0074 41.8937 13.6187 42.0457 16.5429C42.0955 17.5018 42.1116 17.5347 42.846 17.3335C43.2626 17.2194 43.8684 17.0186 44.1052 16.7147H44.1053Z" fill="#FECC85"/>
<path fill-rule="evenodd" clip-rule="evenodd" d="M69.37 46.2517C71.4835 44.169 72.7393 38.0864 72.767 34.7279C72.7733 33.9656 72.6193 33.1828 73.0366 32.5644C72.8035 31.9768 72.8375 32.0511 72.2215 31.8877C71.3566 32.4628 70.4638 34.8306 69.6154 35.774C69.0203 36.4357 66.9365 36.7387 65.9204 36.9605C65.3341 37.0886 65.0529 37.2173 64.479 37.3501C64.5469 38.1609 64.6412 38.1061 65.6488 39.223C66.0103 39.6237 66.0427 39.7292 66.3757 40.1197C68.4014 42.4952 67.3313 42.2059 67.3313 46.8584C68.2031 46.8584 68.9909 46.7379 69.3698 46.2515L69.37 46.2517Z" fill="#FECC85"/>
<path fill-rule="evenodd" clip-rule="evenodd" d="M64.8867 1.24637C66.2621 1.75384 67.5545 3.61317 67.5873 5.58558C67.6216 7.64747 66.2841 9.59862 64.8867 10.126C65.7614 10.6091 66.0401 10.8581 67.4141 10.915C70.1034 11.0263 72.8225 8.95603 72.8501 5.79223C72.8692 3.61961 71.7365 1.95914 70.3267 1.19821C69.5984 0.804978 68.5472 0.329862 67.5525 0.360275C67.353 0.366319 66.3191 0.563033 66.0281 0.654859C65.2831 0.889785 65.4793 0.931701 64.8869 1.24637H64.8867Z" fill="#FC5694"/>
<path fill-rule="evenodd" clip-rule="evenodd" d="M16.8025 35.1681C16.5714 35.2605 16.4134 35.273 16.1479 35.4773C15.5263 35.9558 15.9225 35.5945 15.5801 36.1355C17.2853 35.4738 18.7705 36.4644 19.4685 37.3388C19.9333 37.9209 21.1728 40.2254 21.4648 40.9128L25.8398 38.4869L25.1643 37.1739C24.581 36.5065 24.2034 35.5029 23.6912 34.716C23.0039 34.2902 22.5702 33.717 21.4426 33.609C19.4497 33.3047 18.3193 34.4058 16.8027 35.1681H16.8025Z" fill="#FCB440"/>
<path fill-rule="evenodd" clip-rule="evenodd" d="M64.8867 10.1262C66.2839 9.59884 67.6216 7.64768 67.5872 5.58579C67.5545 3.61339 66.2621 1.75387 64.8867 1.24658C63.5737 1.88975 62.3202 3.89004 62.27 5.6047C62.2181 7.37669 63.5906 9.50954 64.8867 10.1262Z" fill="#DA2668"/>
<path fill-rule="evenodd" clip-rule="evenodd" d="M21.4421 33.609C22.5697 33.7168 23.0034 34.29 23.6907 34.716C23.94 34.2875 24.6223 31.1876 24.9649 30.2811C25.3812 29.1803 26.9408 27.2153 25.4525 26.5049C23.07 25.3675 21.5894 32.031 21.4419 33.6092L21.4421 33.609Z" fill="#FE0363"/>
<path fill-rule="evenodd" clip-rule="evenodd" d="M9.66782 41.9847L9.86259 40.0216C9.52134 39.4642 9.9802 39.8159 9.15516 39.482C7.3633 38.7565 3.6388 37.9974 2.11319 38.731C1.39515 41.1733 3.19427 40.8278 5.21252 41.1584C7.22507 41.4881 7.1748 41.6447 8.62266 42.0679C9.42199 42.3015 9.37742 42.504 9.66782 41.9849V41.9847Z" fill="#FE0363"/>
</g>
<defs>
<clipPath id="clip0_2711_5193">
<rect width="87" height="84" fill="white" transform="translate(-5.60986 0.358887)"/>
</clipPath>
</defs>
</svg>
