<svg width="25" height="25" viewBox="0 0 25 25" fill="none" xmlns="http://www.w3.org/2000/svg">
<path d="M12.626 9.10107C11.8303 9.10107 11.0673 9.41714 10.5047 9.97975C9.94205 10.5424 9.62598 11.3054 9.62598 12.1011C9.62598 12.8967 9.94205 13.6598 10.5047 14.2224C11.0673 14.785 11.8303 15.1011 12.626 15.1011C13.4216 15.1011 14.1847 14.785 14.7473 14.2224C15.3099 13.6598 15.626 12.8967 15.626 12.1011C15.626 11.3054 15.3099 10.5424 14.7473 9.97975C14.1847 9.41714 13.4216 9.10107 12.626 9.10107ZM12.626 7.10107C13.9521 7.10107 15.2238 7.62786 16.1615 8.56554C17.0992 9.50322 17.626 10.775 17.626 12.1011C17.626 13.4272 17.0992 14.6989 16.1615 15.6366C15.2238 16.5743 13.9521 17.1011 12.626 17.1011C11.2999 17.1011 10.0281 16.5743 9.09044 15.6366C8.15276 14.6989 7.62598 13.4272 7.62598 12.1011C7.62598 10.775 8.15276 9.50322 9.09044 8.56554C10.0281 7.62786 11.2999 7.10107 12.626 7.10107ZM19.126 6.85107C19.126 7.18259 18.9943 7.50054 18.7599 7.73496C18.5254 7.96938 18.2075 8.10107 17.876 8.10107C17.5445 8.10107 17.2265 7.96938 16.9921 7.73496C16.7577 7.50054 16.626 7.18259 16.626 6.85107C16.626 6.51955 16.7577 6.20161 16.9921 5.96719C17.2265 5.73277 17.5445 5.60107 17.876 5.60107C18.2075 5.60107 18.5254 5.73277 18.7599 5.96719C18.9943 6.20161 19.126 6.51955 19.126 6.85107ZM12.626 4.10107C10.152 4.10107 9.74798 4.10807 8.59698 4.15907C7.81298 4.19607 7.28698 4.30107 6.79898 4.49107C6.36498 4.65907 6.05198 4.86007 5.71898 5.19407C5.40598 5.49647 5.16533 5.86566 5.01498 6.27407C4.82498 6.76407 4.71998 7.28907 4.68398 8.07207C4.63198 9.17607 4.62598 9.56207 4.62598 12.1011C4.62598 14.5751 4.63298 14.9791 4.68398 16.1301C4.72098 16.9131 4.82598 17.4401 5.01498 17.9271C5.18498 18.3621 5.38498 18.6751 5.71698 19.0071C6.05398 19.3431 6.36698 19.5441 6.79698 19.7101C7.29098 19.9011 7.81698 20.0071 8.59698 20.0431C9.70098 20.0951 10.087 20.1011 12.626 20.1011C15.1 20.1011 15.504 20.0941 16.655 20.0431C17.437 20.0061 17.964 19.9011 18.452 19.7121C18.885 19.5431 19.2 19.3421 19.532 19.0101C19.869 18.6731 20.07 18.3601 20.236 17.9301C20.426 17.4371 20.532 16.9101 20.568 16.1301C20.62 15.0261 20.626 14.6401 20.626 12.1011C20.626 9.62707 20.619 9.22307 20.568 8.07207C20.531 7.29007 20.426 6.76207 20.236 6.27407C20.0853 5.86608 19.8451 5.49703 19.533 5.19407C19.2307 4.88092 18.8615 4.64024 18.453 4.49007C17.963 4.30007 17.437 4.19507 16.655 4.15907C15.551 4.10707 15.165 4.10107 12.626 4.10107ZM12.626 2.10107C15.343 2.10107 15.682 2.11107 16.748 2.16107C17.813 2.21107 18.538 2.37807 19.176 2.62607C19.836 2.88007 20.392 3.22407 20.948 3.77907C21.4565 4.27897 21.8499 4.88366 22.101 5.55107C22.348 6.18807 22.516 6.91407 22.566 7.97907C22.613 9.04507 22.626 9.38407 22.626 12.1011C22.626 14.8181 22.616 15.1571 22.566 16.2231C22.516 17.2881 22.348 18.0131 22.101 18.6511C21.8507 19.3188 21.4571 19.9237 20.948 20.4231C20.4479 20.9314 19.8433 21.3248 19.176 21.5761C18.539 21.8231 17.813 21.9911 16.748 22.0411C15.682 22.0881 15.343 22.1011 12.626 22.1011C9.90898 22.1011 9.56998 22.0911 8.50398 22.0411C7.43898 21.9911 6.71398 21.8231 6.07598 21.5761C5.4083 21.3255 4.8035 20.932 4.30398 20.4231C3.79538 19.9233 3.40191 19.3185 3.15098 18.6511C2.90298 18.0141 2.73598 17.2881 2.68598 16.2231C2.63898 15.1571 2.62598 14.8181 2.62598 12.1011C2.62598 9.38407 2.63598 9.04507 2.68598 7.97907C2.73598 6.91307 2.90298 6.18907 3.15098 5.55107C3.40121 4.88325 3.79478 4.2784 4.30398 3.77907C4.80365 3.27031 5.4084 2.8768 6.07598 2.62607C6.71398 2.37807 7.43798 2.21107 8.50398 2.16107C9.56998 2.11407 9.90898 2.10107 12.626 2.10107Z" fill="#54259F"/>
</svg>
