<svg width="33" height="30" viewBox="0 0 33 30" fill="none" xmlns="http://www.w3.org/2000/svg">
<g clipPath="url(#clip0_2795_971)">
<path fillRule="evenodd" clipRule="evenodd" d="M23.8118 27.0443H6.79387C4.96546 27.0443 3.21571 25.2633 3.21571 23.7141V12.7592C3.21571 11.2584 4.83245 9.42888 7.05568 9.42888H20.4081C20.671 9.42888 21.0629 10.1458 21.4171 10.6067C22.2877 11.7397 24.1668 12.7592 25.819 12.7592C26.5794 12.7592 26.7529 12.8206 27.3899 12.6715C27.3899 15.6513 27.3899 18.631 27.3899 21.6107C27.3899 23.4431 27.5493 25.4805 25.5594 26.5208C25.1018 26.76 24.5047 27.0444 23.8117 27.0444L23.8118 27.0443ZM22.5027 6.62447C22.5027 4.87871 23.2413 3.67941 24.6839 3.03058C27.3441 1.83412 29.9208 4.07481 29.9208 6.1863C29.9208 7.54686 29.7198 8.18294 28.7654 9.14512C27.6863 10.2329 26.2026 10.4703 24.7443 9.89474C23.4514 9.38443 22.5026 8.06853 22.5026 6.62454L22.5027 6.62447ZM19.8846 6.1863V6.79979H7.14298C6.10262 6.79979 5.26776 7.02948 4.52369 7.32446C3.89876 7.57222 3.01703 8.10759 2.54717 8.58227C1.99909 9.13587 1.56385 9.77443 1.208 10.48C0.866363 11.1574 0.597656 12.1053 0.597656 13.1098V23.3636C0.597656 24.3728 0.869193 25.3168 1.20814 25.9932C1.48534 26.5462 2.12274 27.561 2.59064 27.9351C3.26854 28.4772 3.69551 28.8406 4.57267 29.1874C5.34969 29.4947 6.37568 29.6735 7.40486 29.6735H23.201C25.6935 29.6735 28.06 28.6081 29.224 26.3445C30.2403 24.3682 30.0081 23.177 30.0081 20.9096V11.4446C30.5598 11.2967 31.4923 9.98021 31.7828 9.45832C34.1054 5.28657 30.7421 0.13916 26.6046 0.13916C24.8497 0.13916 23.994 0.305887 22.5711 1.25932C22.3592 1.40127 22.3134 1.43195 22.1317 1.60684C21.3552 2.35398 21.0578 2.5782 20.4942 3.73093C20.1848 4.36381 19.8847 5.24117 19.8847 6.18615L19.8846 6.1863Z" fill="#54259F"/>
<path fillRule="evenodd" clipRule="evenodd" d="M5.65918 14.6873C5.65918 15.8496 6.20494 15.9105 7.51879 17.0265C7.88735 17.3395 8.23863 17.5605 8.59978 17.869C8.97567 18.1901 9.29053 18.4168 9.65407 18.7383L10.7194 19.5966C12.7376 21.1413 13.1818 21.4355 15.8699 21.4355C17.7459 21.4355 19.4916 19.987 20.9051 18.7796C21.9085 17.9223 23.1937 17.0063 24.0959 16.1998C24.7939 15.5758 24.9462 15.6749 24.9462 14.6873C24.9462 14.0968 24.0299 12.9216 22.6008 14.0848C22.2296 14.387 21.8311 14.6538 21.4777 14.9727C20.8056 15.5791 17.4741 18.2734 16.9564 18.495C15.7258 19.0217 14.9286 19.0243 13.7109 18.5205C13.0102 18.2305 9.17101 14.9908 8.06709 14.1096C7.68852 13.8075 7.21431 13.4882 6.68575 13.6078C6.16423 13.7257 5.65918 14.1047 5.65918 14.6872V14.6873Z" fill="#FEC739"/>
<path fillRule="evenodd" clipRule="evenodd" d="M24.859 5.1344C22.4244 5.1344 23.0706 7.76355 24.4227 7.76355H24.859C24.859 9.83416 27.4771 10.1812 27.4771 7.76355C29.9107 7.76355 29.4055 5.1344 27.8262 5.1344H27.4771C27.4771 4.31278 27.2534 3.46924 26.2553 3.46924C25.3285 3.46924 24.859 4.19809 24.859 5.1344V5.1344Z" fill="#FEC739"/>
</g>
<defs>
<clipPath id="clip0_2795_971">
<rect width="31.9454" height="29.5344" fill="white" transform="translate(0.597656 0.138672)"/>
</clipPath>
</defs>
</svg>
