<svg class="text-[#D93804]" width="19" height="19" viewBox="0 0 19 19" fill="none" xmlns="http://www.w3.org/2000/svg">
<g clip-path="url(#clip0_2795_10815)">
<path d="M2.56425 6.22876C2.24678 6.22876 1.97741 6.33947 1.75599 6.56089C1.53457 6.78231 1.42383 7.04801 1.42383 7.35812V12.1195C1.42383 12.4374 1.53454 12.7065 1.75599 12.928C1.97741 13.1494 2.24678 13.2601 2.56425 13.2601C2.88149 13.2601 3.14922 13.1494 3.36721 12.928C3.58477 12.7065 3.69384 12.4374 3.69384 12.1195V7.35812C3.69384 7.04798 3.58313 6.78231 3.36168 6.56089C3.14022 6.33947 2.87436 6.22876 2.56425 6.22876Z" fill="#D93804"/>
<path d="M11.73 1.95417L12.5162 0.503834C12.5678 0.407816 12.5495 0.334187 12.461 0.282413C12.3649 0.237769 12.2911 0.260391 12.2395 0.34868L11.4424 1.81061C10.7409 1.50046 9.99895 1.34511 9.21658 1.34511C8.43404 1.34511 7.69205 1.5005 6.99084 1.81061L6.19361 0.34868C6.1418 0.260391 6.06801 0.237969 5.97219 0.282413C5.8835 0.33442 5.86514 0.407816 5.91695 0.503834L6.70319 1.95417C5.90596 2.36073 5.27101 2.92694 4.79858 3.65404C4.32616 4.38154 4.08984 5.17653 4.08984 6.04043H14.3322C14.3322 5.17673 14.0958 4.3817 13.6234 3.65404C13.151 2.92694 12.5197 2.36073 11.73 1.95417ZM7.18454 4.0637C7.09952 4.14892 6.99797 4.19133 6.87993 4.19133C6.76166 4.19133 6.66217 4.14892 6.58101 4.0637C6.49986 3.97887 6.45928 3.87772 6.45928 3.75928C6.45928 3.64124 6.49986 3.5399 6.58101 3.45487C6.66217 3.37005 6.76189 3.32764 6.87993 3.32764C6.99797 3.32764 7.09952 3.37005 7.18454 3.45487C7.26937 3.5401 7.31198 3.64124 7.31198 3.75928C7.31174 3.87752 7.26917 3.97887 7.18454 4.0637ZM11.8517 4.0637C11.7704 4.14892 11.6707 4.19133 11.5528 4.19133C11.4345 4.19133 11.333 4.14892 11.2481 4.0637C11.1632 3.97887 11.1207 3.87772 11.1207 3.75928C11.1207 3.64124 11.1632 3.5399 11.2481 3.45487C11.333 3.37005 11.4345 3.32764 11.5528 3.32764C11.6709 3.32764 11.7704 3.37005 11.8517 3.45487C11.9329 3.5401 11.9734 3.64124 11.9734 3.75928C11.9734 3.87752 11.9329 3.97887 11.8517 4.0637Z" fill="#D93804"/>
<path d="M4.13672 13.8133C4.13672 14.1532 4.25476 14.4409 4.49087 14.677C4.72719 14.9131 5.01491 15.0311 5.35457 15.0311H6.17402L6.18525 17.545C6.18525 17.8624 6.29596 18.132 6.51738 18.3535C6.7388 18.5749 7.0047 18.6856 7.31461 18.6856C7.63188 18.6856 7.90141 18.5749 8.12287 18.3535C8.34432 18.132 8.45503 17.8625 8.45503 17.545V15.0314H9.98306V17.545C9.98306 17.8624 10.0937 18.132 10.3152 18.3535C10.5366 18.5749 10.8059 18.6856 11.1234 18.6856C11.4407 18.6856 11.7102 18.5749 11.9317 18.3535C12.1532 18.132 12.2638 17.8625 12.2638 17.545V15.0314H13.0943C13.4265 15.0314 13.7105 14.9133 13.947 14.6772C14.1831 14.4411 14.3012 14.1534 14.3012 13.8135V6.43854H4.13672V13.8133Z" fill="#D93804"/>
<path d="M15.8755 6.22876C15.5653 6.22876 15.2997 6.33784 15.0782 6.55539C14.8568 6.77335 14.7461 7.04108 14.7461 7.35812V12.1195C14.7461 12.4374 14.8568 12.7065 15.0782 12.928C15.2997 13.1494 15.5655 13.2601 15.8755 13.2601C16.1928 13.2601 16.4623 13.1494 16.6837 12.928C16.9052 12.7065 17.0159 12.4374 17.0159 12.1195V7.35812C17.0159 7.04105 16.9052 6.77335 16.6837 6.55539C16.4623 6.33784 16.1928 6.22876 15.8755 6.22876Z" fill="#D93804"/>
</g>
<defs>
<clipPath id="clip0_2795_10815">
<rect width="18.4256" height="18.4256" fill="white" transform="translate(0.00585938 0.260193)"/>
</clipPath>
</defs>
</svg>
