<svg width="17" height="17" viewBox="0 0 17 17" fill="none" xmlns="http://www.w3.org/2000/svg">
<g clipPath="url(#clip0_2795_10609)">
<path d="M7.48388 1.96387C10.815 1.96387 13.5185 4.6674 13.5185 7.99853C13.5185 11.3297 10.815 14.0332 7.48388 14.0332C4.15275 14.0332 1.44922 11.3297 1.44922 7.99853C1.44922 4.6674 4.15275 1.96387 7.48388 1.96387ZM7.48388 12.6922C10.0768 12.6922 12.1775 10.5914 12.1775 7.99853C12.1775 5.40497 10.0768 3.3049 7.48388 3.3049C4.89032 3.3049 2.79026 5.40497 2.79026 7.99853C2.79026 10.5914 4.89032 12.6922 7.48388 12.6922ZM13.1732 12.7398L15.0701 14.636L14.1213 15.5848L12.2251 13.6879L13.1732 12.7398Z" fill="#54259F"/>
</g>
<defs>
<clipPath id="clip0_2795_10609">
<rect width="16.0924" height="16.0924" fill="white" transform="translate(0.109375 0.623047)"/>
</clipPath>
</defs>
</svg>
