<svg width="25" height="25" viewBox="0 0 25 25" fill="none" xmlns="http://www.w3.org/2000/svg">
<path d="M12.5498 20.1011C14.6715 20.1011 16.7064 19.2582 18.2067 17.7579C19.707 16.2576 20.5498 14.2228 20.5498 12.1011C20.5498 9.97934 19.707 7.94451 18.2067 6.44422C16.7064 4.94393 14.6715 4.10107 12.5498 4.10107C10.4281 4.10107 8.39324 4.94393 6.89295 6.44422C5.39266 7.94451 4.5498 9.97934 4.5498 12.1011C4.5498 14.2228 5.39266 16.2576 6.89295 17.7579C8.39324 19.2582 10.4281 20.1011 12.5498 20.1011ZM12.5498 22.1011C7.0268 22.1011 2.5498 17.6241 2.5498 12.1011C2.5498 6.57807 7.0268 2.10107 12.5498 2.10107C18.0728 2.10107 22.5498 6.57807 22.5498 12.1011C22.5498 17.6241 18.0728 22.1011 12.5498 22.1011ZM9.43981 13.2711L6.9418 12.4921C6.4018 12.3271 6.3988 11.9551 7.0628 11.6881L16.7958 7.92807C17.3608 7.69807 17.6808 7.98907 17.4978 8.71807L15.8408 16.5381C15.7248 17.0951 15.3898 17.2281 14.9248 16.9711L12.3738 15.0831L11.1848 16.2311C11.0628 16.3491 10.9638 16.4501 10.7758 16.4751C10.5888 16.5011 10.4348 16.4451 10.3218 16.1351L9.45181 13.2641L9.43981 13.2721V13.2711Z" fill="#54259F"/>
</svg>
