<svg width="25" height="25" viewBox="0 0 25 25" fill="none" xmlns="http://www.w3.org/2000/svg">
<path d="M16.0031 5.65119C15.2431 5.65106 14.5134 5.94931 13.971 6.48176C13.4287 7.0142 13.117 7.73828 13.1031 8.49819L13.0751 10.0732C13.0735 10.1578 13.054 10.241 13.0179 10.3175C12.9818 10.394 12.93 10.462 12.8658 10.5171C12.8016 10.5721 12.7264 10.613 12.6453 10.6369C12.5642 10.6609 12.479 10.6675 12.3951 10.6562L10.8341 10.4442C8.78014 10.1642 6.81214 9.21819 4.92414 7.64519C4.32614 10.9552 5.49414 13.2482 8.30714 15.0172L10.0541 16.1152C10.1372 16.1674 10.2061 16.2391 10.255 16.324C10.3039 16.409 10.3312 16.5047 10.3345 16.6027C10.3379 16.7007 10.3172 16.798 10.2742 16.8861C10.2313 16.9742 10.1674 17.0505 10.0881 17.1082L8.49614 18.2712C9.44314 18.3302 10.3421 18.2882 11.0881 18.1402C15.8061 17.1982 18.9431 13.6482 18.9431 7.79219C18.9431 7.31419 17.9311 5.65119 16.0031 5.65119ZM11.1031 8.46119C11.1206 7.49724 11.422 6.55986 11.9697 5.76641C12.5174 4.97296 13.2869 4.35871 14.1821 4.00056C15.0772 3.6424 16.0581 3.55627 17.0019 3.75294C17.9457 3.9496 18.8106 4.42033 19.4881 5.10619C20.1991 5.10119 20.8041 5.28119 22.1571 4.46119C21.8221 6.10119 21.6571 6.81319 20.9431 7.79219C20.9431 15.4342 16.2461 19.1502 11.4801 20.1012C8.21214 20.7532 3.46014 19.6822 2.09814 18.2602C2.79214 18.2062 5.61214 17.9032 7.24214 16.7102C5.86314 15.8012 0.374145 12.5712 3.98114 3.88719C5.67414 5.86419 7.39114 7.21019 9.13115 7.92419C10.2891 8.39919 10.5731 8.38919 11.1041 8.46219L11.1031 8.46119Z" fill="#54259F"/>
</svg>
