<svg width="25" height="25" viewBox="0 0 25 25" fill="none" xmlns="http://www.w3.org/2000/svg">
<path d="M8.03231 18.5951L8.75631 19.0181C9.97725 19.7301 11.3659 20.104 12.7793 20.1011C14.3616 20.1011 15.9083 19.6319 17.2239 18.7528C18.5395 17.8738 19.5648 16.6244 20.1703 15.1625C20.7758 13.7007 20.9343 12.0922 20.6256 10.5404C20.3169 8.9885 19.555 7.56304 18.4362 6.44422C17.3173 5.3254 15.8919 4.56347 14.34 4.25479C12.7882 3.94611 11.1797 4.10454 9.71784 4.71004C8.25603 5.31554 7.0066 6.34092 6.12755 7.65651C5.2485 8.97211 4.77931 10.5188 4.77931 12.1011C4.77931 13.5371 5.15631 14.9141 5.86331 16.1251L6.28531 16.8491L5.63231 19.2501L8.03231 18.5951ZM2.78331 22.1011L4.13531 17.1331C3.24445 15.6059 2.77641 13.8691 2.77931 12.1011C2.77931 6.57807 7.25631 2.10107 12.7793 2.10107C18.3023 2.10107 22.7793 6.57807 22.7793 12.1011C22.7793 17.6241 18.3023 22.1011 12.7793 22.1011C11.0121 22.1039 9.27597 21.6362 7.74931 20.7461L2.78331 22.1011ZM9.17031 7.40907C9.30431 7.39907 9.43931 7.39907 9.57331 7.40507C9.62731 7.40907 9.68131 7.41507 9.73531 7.42107C9.89431 7.43907 10.0693 7.53607 10.1283 7.67007C10.4263 8.34607 10.7163 9.02707 10.9963 9.71007C11.0583 9.86207 11.0213 10.0571 10.9033 10.2471C10.8222 10.3756 10.7344 10.4997 10.6403 10.6191C10.5273 10.7641 10.2843 11.0301 10.2843 11.0301C10.2843 11.0301 10.1853 11.1481 10.2233 11.2951C10.2373 11.3511 10.2833 11.4321 10.3253 11.5001L10.3843 11.5951C10.6403 12.0221 10.9843 12.4551 11.4043 12.8631C11.5243 12.9791 11.6413 13.0981 11.7673 13.2091C12.2353 13.6221 12.7653 13.9591 13.3373 14.2091L13.3423 14.2111C13.4273 14.2481 13.4703 14.2681 13.5943 14.3211C13.6563 14.3471 13.7203 14.3701 13.7853 14.3871C13.8525 14.4042 13.9232 14.401 13.9886 14.3778C14.0539 14.3547 14.1109 14.3126 14.1523 14.2571C14.8763 13.3801 14.9423 13.3231 14.9483 13.3231V13.3251C14.9986 13.2782 15.0584 13.2426 15.1236 13.2207C15.1888 13.1987 15.2579 13.191 15.3263 13.1981C15.3863 13.2021 15.4473 13.2131 15.5033 13.2381C16.0343 13.4811 16.9033 13.8601 16.9033 13.8601L17.4853 14.1211C17.5833 14.1681 17.6723 14.2791 17.6753 14.3861C17.6793 14.4531 17.6853 14.5611 17.6623 14.7591C17.6303 15.0181 17.5523 15.3291 17.4743 15.4921C17.4209 15.6033 17.35 15.7053 17.2643 15.7941C17.1634 15.9 17.0529 15.9964 16.9343 16.0821C16.8933 16.1129 16.8516 16.1429 16.8093 16.1721C16.6849 16.251 16.5571 16.3244 16.4263 16.3921C16.1688 16.5288 15.8845 16.6074 15.5933 16.6221C15.4083 16.6321 15.2233 16.6461 15.0373 16.6361C15.0293 16.6361 14.4693 16.5491 14.4693 16.5491C13.0476 16.1751 11.7327 15.4745 10.6293 14.5031C10.4033 14.3041 10.1943 14.0901 9.98031 13.8771C9.09031 12.9921 8.41831 12.0371 8.01031 11.1351C7.80148 10.6924 7.68868 10.2105 7.67931 9.72107C7.67519 9.11393 7.87366 8.52274 8.24331 8.04107C8.31631 7.94707 8.38531 7.84907 8.50431 7.73607C8.63131 7.61607 8.71131 7.55207 8.79831 7.50807C8.91398 7.45011 9.04017 7.41609 9.16931 7.40807L9.17031 7.40907Z" fill="#54259F"/>
</svg>
